/* XPM */
static char *Alex_grey[] = {
/* columns rows colors chars-per-pixel */
"64 64 249 2 ",
"   c #252E38",
".  c #2B3534",
"X  c #2C3739",
"o  c #2B353D",
"O  c #323B3C",
"+  c #3A423F",
"@  c #263342",
"#  c #2B3543",
"$  c #2E3A43",
"%  c #2D3B4A",
"&  c #333C43",
"*  c #3A3C45",
"=  c #343D4B",
"-  c #3A3E4A",
";  c #333F50",
":  c #354145",
">  c #3B4345",
",  c #3D4A46",
"<  c #35434C",
"1  c #3C444C",
"2  c #3D494A",
"3  c #364450",
"4  c #3C4552",
"5  c #3E4953",
"6  c #42444C",
"7  c #464A48",
"8  c #434B4C",
"9  c #494E4C",
"0  c #4A5147",
"q  c #45514C",
"w  c #4C534C",
"e  c #55574C",
"r  c #424552",
"t  c #454D53",
"y  c #464A57",
"u  c #4A4C53",
"i  c #4A4D5B",
"p  c #544C5A",
"a  c #455252",
"s  c #4C5354",
"d  c #4C5954",
"f  c #45505A",
"g  c #4C525B",
"h  c #535655",
"j  c #525B54",
"k  c #53535D",
"l  c #555C5C",
"z  c #5A5B59",
"x  c #624F5F",
"c  c #4F605C",
"v  c #576357",
"b  c #5C625C",
"n  c #63645E",
"m  c #666859",
"M  c #75625E",
"N  c #73725B",
"B  c #4C5665",
"V  c #545562",
"C  c #5B5B63",
"Z  c #585865",
"A  c #575369",
"S  c #5C5B6A",
"D  c #645A67",
"F  c #625C6B",
"G  c #6C5C74",
"H  c #5D6262",
"J  c #5C6669",
"K  c #5E6476",
"L  c #626564",
"P  c #656A64",
"I  c #6A6B65",
"U  c #63626B",
"Y  c #6A626C",
"T  c #666A6A",
"R  c #6A6C6C",
"E  c #726D68",
"W  c #667468",
"Q  c #6D716D",
"!  c #74746C",
"~  c #7A756A",
"^  c #646373",
"/  c #6A6574",
"(  c #6C6B74",
")  c #69687A",
"_  c #6C6C7B",
"`  c #746A76",
"'  c #736C7C",
"]  c #7B6C7C",
"[  c #6C7272",
"{  c #6B7677",
"}  c #737574",
"|  c #747A75",
" . c #7B7B73",
".. c #75777A",
"X. c #7D737C",
"o. c #7C7C7C",
"O. c #827174",
"+. c #847876",
"@. c #837C7D",
"#. c #8C7B7D",
"$. c #977C7C",
"%. c #7F816B",
"&. c #7C827C",
"*. c #88866C",
"=. c #84847C",
"-. c #888779",
";. c #8C847C",
":. c #908176",
">. c #93837C",
",. c #948D7E",
"<. c #969379",
"1. c #A39B7A",
"2. c #6A6C83",
"3. c #776D83",
"4. c #757685",
"5. c #7B7382",
"6. c #7C748B",
"7. c #7C7C8B",
"8. c #697691",
"9. c #6A7495",
"0. c #797A94",
"q. c #866D85",
"w. c #996E8C",
"e. c #847B84",
"r. c #8C7C84",
"t. c #81768C",
"y. c #897588",
"u. c #847C8B",
"i. c #8B7D8C",
"p. c #967B87",
"a. c #847C93",
"s. c #8B7994",
"d. c #937C94",
"f. c #9A7895",
"g. c #A17C85",
"h. c #A0749D",
"j. c #A279A4",
"k. c #7D8284",
"l. c #7A8298",
"z. c #7686AC",
"x. c #848484",
"c. c #8C8484",
"v. c #8B8A83",
"b. c #84858B",
"n. c #8D848C",
"m. c #8C8C8B",
"M. c #948283",
"N. c #9B8385",
"B. c #918C84",
"V. c #9B8C84",
"C. c #94838C",
"Z. c #9C858B",
"A. c #938B8C",
"S. c #9D8A8C",
"D. c #8B928D",
"F. c #959282",
"G. c #9B9485",
"H. c #9C948B",
"J. c #9A988A",
"K. c #868494",
"L. c #8C8395",
"P. c #8B8C94",
"I. c #8C849A",
"U. c #8D899C",
"Y. c #948392",
"T. c #9C8493",
"R. c #938B94",
"E. c #9B8B95",
"W. c #96839A",
"Q. c #938B9C",
"!. c #9C8C9A",
"~. c #8A9597",
"^. c #9B9393",
"/. c #989798",
"(. c #A2898C",
"). c #A19787",
"_. c #A0958C",
"`. c #A19B8A",
"'. c #A28695",
"]. c #A38A93",
"[. c #A6899A",
"{. c #A58C9B",
"}. c #A39393",
"|. c #A4939B",
" X c #AA939D",
".X c #A59898",
"XX c #AD9A9E",
"oX c #B29A9E",
"OX c #9BA29B",
"+X c #A9A58B",
"@X c #B3AC8A",
"#X c #BEB289",
"$X c #A9A695",
"%X c #ACAB9C",
"&X c #B3AC95",
"*X c #B3AB9A",
"=X c #BBB394",
"-X c #B8B39A",
";X c #BBB29C",
":X c #838AAD",
">X c #9A8CA3",
",X c #988AA4",
"<X c #9998A3",
"1X c #9D94AA",
"2X c #A286A3",
"3X c #A58BA8",
"4X c #A393A3",
"5X c #AB94A2",
"6X c #AD9AA2",
"7X c #AC94AC",
"8X c #A799AB",
"9X c #B197A6",
"0X c #B29DA3",
"qX c #B29AAB",
"wX c #A797B2",
"eX c #AC95B3",
"rX c #AC99B4",
"tX c #B29CB4",
"yX c #B19CBA",
"uX c #9BA4A7",
"iX c #ABA5A4",
"pX c #B4A3A4",
"aX c #B4ABA5",
"sX c #B8ACA4",
"dX c #B5A3AB",
"fX c #B9A4A9",
"gX c #B6ABA9",
"hX c #BCACAB",
"jX c #B7B4A4",
"kX c #BAB2A4",
"lX c #BDB3AB",
"zX c #A9ABB7",
"xX c #B8A5B5",
"cX c #A9B3B8",
"vX c #BBB3B4",
"bX c #C3B98E",
"nX c #C5BB94",
"mX c #C3B899",
"MX c #C5BCA6",
"NX c #C1B6AC",
"BX c #C1B1B1",
"VX c #C9C19D",
"CX c #CAC4A8",
"ZX c #CECDB4",
"AX c #AEB2C2",
"SX c #B3BDC9",
"DX c #BAC9D5",
"FX c #B8CAD4",
"GX c #D8DAC0",
/* pixels */
"x.x.x.x.x.x.x.x.x.x.x.x.x.x.x.x.x.x.x.x.x.x.x.o.| Q Q Q Q W R Q } } } ..o.k.x.x.x.x.x.x.x.x.x.x.x.x.x.x.x.x.x.x.x.x.x.x.x.x.x.x.",
"x.x.x.x.x.x.x.x.x.x.x.x.x.x.x.x.x.x.x.x.x.o.| T v v j j j d d d h h l H T R R [ } } o.o.x.x.x.x.x.x.x.x.x.x.x.x.x.x.x.x.x.x.x.x.",
"x.x.x.x.x.x.x.x.x.x.x.x.x.x.x.x.x.x.x.o.} P v w q q q w d d a a 8 , 2 8 a a q q h z b L Q o.=.x.x.x.x.x.x.x.x.x.x.x.x.x.x.x.x.x.",
"x.x.x.x.x.x.x.x.x.x.x.x.x.x.x.x.x.x.o.I j 0 w w 8 7 7 7 q a a a 2 , 2 2 8 q w w e e e 0 w b Q o.x.x.x.x.x.x.x.x.x.x.x.x.x.x.x.x.",
"x.x.x.x.x.x.x.x.x.x.x.x.x.x.x.x.x.o.L w 0 w e h h h h s s t 8 2 > 2 8 9 s h n ! %.*.~ N m e w L o.x.x.x.x.x.x.x.x.x.x.x.x.x.x.x.",
"x.x.x.x.x.x.x.x.x.x.x.x.x.x.x.x.o.L w w z m m E E E ` R U C s 8 6 t k C R } x.J.$X&X+X1.<.N e w L o.x.x.x.x.x.x.x.x.x.x.x.x.x.x.",
"x.x.x.x.x.x.x.x.x.x.x.x.x.x.x.o.L w e m E ~ +.+.#.#.r.e.X.` U C l S / ..x.A.$XlXZXZXCX=X@X1.*.m e n } x.x.x.x.x.x.x.x.x.x.x.x.x.",
"x.x.x.x.x.x.x.x.x.x.x.x.x.x.o.L w z E O.+.#.>.M.M.C.C.C.i.e.X.` ' X.e.n.^.XXaXCXZXGXZXVXnX#X@X<.N e b | x.x.x.x.x.x.x.x.x.x.x.x.",
"x.x.x.x.x.x.x.x.x.x.x.x.x.o.b 9 z E +.#.$.>.M.N.Z.Z.T.T.T.Y.Y.i.i.n.E.|.XXpXsXNXCXZXZXCXnXnXbX@X<.N e b | x.x.x.x.x.x.x.x.x.x.x.",
"x.x.x.x.x.x.x.x.x.x.x.x.&.P 8 s E +.:.>.>.M.N.Z.Z.Z.'.'.'.'.!.!.E.E.|. XXXpXpXsXNXMXCXCXVXnXnXnX@X<.m j W &.x.x.x.x.x.x.x.x.x.x.",
"x.x.x.x.x.x.x.x.x.x.x.x.| h 8 n +.:.>.>.M.N.Z.Z.(.'.'.[.[.[.[.[.{.|. X XXXoXpXsXlXNXMXMXMXmXnXnXnX@X%.v v W &.x.x.x.x.x.x.x.x.x.",
"x.x.x.x.x.x.x.x.x.x.x.x.W q h ~ :.,.V.N.N.Z.S.S.].'.[.{.{.{.[.[.{.5X5XXXXX6X0XfXgXhXlXMXMXmXmXnXnX=X<.m v J | x.x.x.x.x.x.x.x.x.",
"x.x.x.x.x.x.x.x.x.x.v.v.b 8 P -.,.V.V.V.V.S.S.].].'.[.{.{.{.[.[. X5X6X6XXX6XXXpXfXgXsXkXkX;XmXmXnX=X+X~ v v W &.x.x.x.x.x.x.x.x.",
"x.x.x.x.x.x.x.x.x.x.m.=.j s ~ ,.F.G.G.V.V.Z.Z.].'.'.[.{.{. X X5X5X5X6X6XXXXXXX0XpXfXgXgXaXsX;X;X=X=X@X*.v d b | x.x.x.x.x.x.x.x.",
"x.x.x.x.x.x.x.x.x.m./.Q q l +.F.G.G.G.V.S.S.S.].].].{.{. X X5X5X5X5X6X6XXXXXXX0XpXfXgXgXgXaXkX;X=X=X@X-.b d b | x.x.x.x.x.x.x.x.",
"x.x.x.x.x.x.x.x.x.D.OXP , L -.G.).).G.V.S.S.S.].].].{. XXXXX0X0X0X0X6X6X0X0X0XpXpXfXgXaXaXaXkX-X-X=X@X<.n d c [ k.x.x.x.x.x.x.x.",
"x.x.x.x.x.x.x.x.x.~./.H 8 P -.G.).).G.S.S.S.].'.{.{. XXX0X0XpXfXfXpXpXpXpXpXgXsXsXsXgXgXaXaXsX-X-X=X@XF.I a d J o.x.x.x.x.x.x.x.",
"x.x.x.x.x.x.x.x.m.uXD.h 8 n  .F.).).).H.].].].{. X5X5X9X0X0XfXfXfXpXpXpXsXhXlXlXlXlXlXlXgXsXkX&X&X&X+XF.I a a d } x.x.x.x.x.x.x.",
"x.x.x.x.x.x.x.x./.zX| , > z ~ ,.)._._._.].].{.5X5X7X7XqXqXdXdXdXpX0X0XpXdXhXlXNXNXNXNXlXlXlXkX-X&X&X+X,.P 8 2 q Q x.x.x.x.x.x.x.",
"x.x.x.x.x.x.x.x.~.uXH O > j ~ ,.)._.H.S.C.E.!.4X8X7XeXeXtXtXxXdXqXqXqXqXdXdXxXxXvXBXBXlXlXlXlX;X&X&X+X=.L 2 : a Q x.x.x.x.x.x.x.",
"x.x.x.x.x.x.x.x.D.~.d . + z =.G.G.V.c.@.X.e.u.L.Q.,X3XwXeXrXyXyXtXrXrXrXrXrXxXxXxXvXvXlXlXlXlXkX-X&XJ. .l 1 < a [ x.x.x.x.x.x.x.",
"x.x.x.x.x.x.x.x.k.{ , . > P ,.G.F.;.o.` / ^ ^ ^ ) ' t.I.1XwXrXrXrXrXrXwXwXwXwXwXwXiXiXiXiXaXkXjX;X&XG.! s < < 8 [ x.x.x.x.x.x.x.",
"x.x.x.x.x.x.x.x.&.c O . 7 ! F.G.-.@...' _ _ ^ Z k k S ' a.,X1XwXwXwXwX,X,XI.K.7.7.7.7.b.m./.%X-X;X&XJ.! t < < a } x.x.x.x.x.x.x.",
"x.x.x.x.x.x.x.x.k.d . . 9  .G.,.=.e.u.u.6.4._ F k p k D _ t.I.,X,X,X,Xa.6.3./ Z V Z K _ 4.b.J.$X&X&X`.} 8 $ < a ..x.x.x.x.x.x.x.",
"x.x.x.x.x.x.x.x.o.a . . w =.G.F.v.n.n.u.' _ F k k V Z D Y 5.L.>X,X,XI.7._ / S V Z ^ _ 4.7.7.b.J.+X&X+Xo.8 . : a | x.x.x.x.x.x.x.",
"x.x.x.x.x.x.x.x.o.l X . h -.J.J.A.n.X./ ) K g r A 2.S D Y e.E.4X4X8X,Xu...( F F F / ' 7.K.I.U.R.^.&X$X-.u   O q | x.x.x.x.x.x.x.",
"x.x.x.x.x.x.x.x.o.n O O v -.J.J.B.@.` Y 0.0.J Z 9.z.3./ ` +.S. XqX8X<XK.5./ / ) ^ V S _ 4.u.U.<X/.%X&Xv.s   X s o.x.x.x.x.x.x.x.",
"x.x.x.x.x.x.x.c.;.~ e 7 P B.J.H.B.e.@.X.u.a.2.2.z.:X6.] X.@.N.}.0X6X!.u.6.3.6.0.2.t B 8.8._ u.R.<X%X*XF.h   X h o.x.x.x.x.x.x.x.",
"x.x.x.x.x.x.m.A.p.#.~ n ~ F.J.H.A.A.n.c.e.e.6.6.6.3.' ] +.#.N.].0XpXE.i.u.t.s.:X9.Z K z.l._ X.n./.%X*XJ.z o X l o.x.x.x.x.x.x.x.",
"x.x.x.x.x.x.m.^.g.(.V.+.=.G.)._.^.^.R.R.n.i.u.6.3.' ] @.#.p.Z. XpXpX|.C.u.t.t.a.0.3.0.:XI.u.u.n./.%X*X`.n & : h  .x.x.x.x.x.x.x.",
"x.x.x.x.x.x.D./.g.(._.;.-.H._._.^.^.!.!.E.Y.i.i.u.y.r.M.N.N.(. XfXfX XE.L.a.6.6.6.t.a.I.P.R././..XiX-X$XQ 2 7 e E =.x.x.x.x.x.x.",
"x.x.x.x.x.x.~./.$.(.S.;.-.H._.}.}.|.|.{.T.T.d.d.d.p.N.Z.N.p.(.oXhXhXXX.X!.Q.I.K.a.a.L.L.Q./.6XiXiXaXjX$X~ a 9 e n o.x.x.x.x.x.x.",
"x.x.x.x.x.x.~.<Xp.{.Z.#.;.G._.}..X|.{.[.'.'.'.T.T.T.Z.Z.N.p.(.oXBXhXoX X X4X>XQ.Q.Q.!.!. X6XaXgXkXjXjX$X .h n M ~ =.x.x.x.x.x.x.",
"x.x.x.x.x.x.~.uXZ.'.T.p.;.G._.}.}.].].'.[.[.2X2X[.'.'.Z.N.N.].9XfXhXpXXX6X8X8X5X4X4X X6XpXhXhXhXkXjX-X$X .L ~ +.;.x.x.x.x.x.x.x.",
"x.x.x.x.x.x.~.uXZ.T.T.c.=.F._.}.].].].[.3X7X7X3X2XT.T.p.N.(.{.9XxXhXfXoX5X7XrXqX7X9X9XfXhXBXhXhXgXjX-X+X .} A.$.;.x.x.x.x.x.x.x.",
"x.x.x.x.x.x.~.<XN.Z.C.r. .B.H.}.}..X X5X7XeXeX2Xf.f.p.p.(.{.5XtXxXxXhXpXXX4X3XeX7XqXqXxXxXBXhXhXgXaX*XJ.~ X.^.(.;.x.x.x.x.x.x.x.",
"x.x.x.x.x.x.~.<XN.Z.N.#.! v.H.}.}..X X7XeXeX3Xf.q.y.p.p.(.{.7XyXxXxXdX0XXX[.W.3XeXeXyXtXxXxXhXgXaXaX%XF.E X.|.}.v.x.x.x.x.x.x.x.",
"x.x.x.x.x.x.~.<XS.E.E.r.E -.H.}.}.|.5X7XeX3Xf.q.O.y.y.y.r.d.2X7XrX7X!.Y.Y.d.s.f.2XeXeXyXxXxXxXgXaXaX%X-.I O.|..Xv.x.x.x.x.x.x.x.",
"x.x.x.x.x.x.b.~./.E.!.c.R =.A.H.^.|.{.2X>Xd.q.` 5.q.] ] ] ] y.d.W.L.u.6.t.a.I.s.d.2X7XeXyXxXdXdXiXaX$X-.! M..X$XB.x.x.x.x.x.x.x.",
"x.x.x.x.x.x.x.P.<XE.E.c.I  .v.A.S.E.E.W.d.q.F D Y F D C k k F _ 3._ / F ^ 2.0.t.q.d.2X7XrXwX8XiXiX%X$X=.x..X*X%XA.x.x.x.x.x.x.x.",
"x.x.x.x.x.x.x.b.P.R.A.#.I } =.B.A.A.R.Y.y.Y p r 9 6 * * o & 1 i V i y 1 6 g K / G ] d.>X3XwX4X6XiX$XJ.&.m.iXsX$Xm.x.x.x.x.x.x.x.",
"x.x.x.x.x.x.x.x.b.P.m.@.I Q @.c.c.C.A.L.` k - & o o       # # = = = & # o & - r u S 3.W.>X>X1X<X/./.v. .A.iXfX^.v.x.x.x.x.x.x.x.",
"x.x.x.x.x.x.x.x.x.x.x.o.R T  .x.x.c.n.u.Y 1 & & * * * * * - i V V r - $ & & & = - r F t.W.Q.Q.Q./.D.&.} ^.iX.Xm.x.x.x.x.x.x.x.x.",
"x.x.x.x.x.x.x.x.x.x.x.o.R H ! o.o.@.x.5.C t u r p p p x x D G 3.3.G x p p V V y 4 1 i ( K.P.K.K.P.m.| T A..XA.x.x.x.x.x.x.x.x.x.",
"x.x.x.x.x.x.x.x.x.x.x.x.} z R } o.o.o...^ _ / D D ] e.i.p.Y.>X,X,X,Xd.y.q.] / Z k i y U k.K.k.7.k.k.T T @.m.x.x.x.x.x.x.x.x.x.x.",
"x.x.x.x.x.x.x.x.x.x.x.x.o.b P E } ` ( ' 7.K.a.3.' u./.iXzXcXDXSXSXDXAXzX8XQ.3.S D ^ U _ 7.7.4.{ { [ H Q x.x.x.x.x.x.x.x.x.x.x.x.",
"x.x.x.x.x.x.x.x.x.x.x.x.o.P z L T L L ( u.U.Q.L.i.i.R.<XzXSXDXDXDXDXDXSXcX<X7./ 3.7.7.7.4._ J J J C l } x.x.x.x.x.x.x.x.x.x.x.x.",
"x.x.x.x.x.x.x.x.x.x.x.x.x.} h l C l l U 4.K.U.Q.Y.p.w.p.!.8XzXzXcXAXzXzXuXP.t.a.I.U.K.7._ Z g g g s l o.x.x.x.x.x.x.x.x.x.x.x.x.",
"x.x.x.x.x.x.x.x.x.x.x.x.x.&.l 9 9 u u V ) 7.L.R.!.T.p.w.w.w.f.f.f.f.f.f.f.w.f.,X>X,XK.4.Z t 5 f t t L o.x.x.x.x.x.x.x.x.x.x.x.x.",
"x.x.x.x.x.x.x.x.x.x.x.x.x.k.J 2 > > 8 s J 4.b.Y.E.!.T.f.f.h.j.h.f.h.j.2X2X>X>X8X1XU.4.K g 5 5 f t s } x.x.x.x.x.x.x.x.x.x.x.x.x.",
"x.x.x.x.x.x.x.x.x.x.x.x.x.x.{ 9 O > 1 r V ^ 5.u.C.Y.Y.i.y.y.s.q.q.s.d.,X1X1X1X1X,Xl.K B y 5 f f t H o.x.x.x.x.x.x.x.x.x.x.x.x.x.",
"x.x.x.x.x.x.x.x.x.x.x.x.x.x.o.H > & : : 1 y S ( 5.e.X.` F S V V A S ) 6.K.Q.Q.I.K._ B f f f f t s Q x.x.x.x.x.x.x.x.x.x.x.x.x.x.",
"x.x.x.x.x.x.x.x.x.x.x.x.x.x.x.} l O O $ $ & 4 g C Y Y C u 6 1 1 1 r i U ' 5...' ) Z 5 f B f 5 2 H o.x.x.x.x.x.x.x.x.x.x.x.x.x.x.",
"x.x.x.x.x.x.x.x.x.x.x.x.x.x.x.x.} s X o o o # = 6 u u 9 6 u V S Z V k k C D C k g 1 1 a f 5 1 l } x.x.x.x.x.x.x.x.x.x.x.x.x.x.x.",
"x.x.x.x.x.x.x.x.x.x.x.x.x.x.x.x.x.R 8 o o o o o & * * 6 u Z ^ ^ S U C u 9 8 6 6 > & 1 5 1 < l | x.x.x.x.x.x.x.x.x.x.x.x.x.x.x.x.",
"x.x.x.x.x.x.x.x.x.x.x.x.x.x.x.x.x.o.L 2 o o o o o & * 1 u V S S k V V u 8 2 > > & & : : & a [ x.x.x.x.x.x.x.x.x.x.x.x.x.x.x.x.x.",
"x.x.x.x.x.x.x.x.x.x.x.x.x.x.x.x.x.x.o.z & O o o $ = - 6 y i i y r u g t 8 2 > > : : : $ 8 T o.x.x.x.x.x.x.x.x.x.x.x.x.x.x.x.x.x.",
"x.x.x.x.x.x.x.x.x.x.x.x.x.x.x.x.x.x.x.} l > & o $ = = r r r r 1 > 1 1 8 1 2 1 1 : : & 2 L o.x.x.x.x.x.x.x.x.x.x.x.x.x.x.x.x.x.x.",
"x.x.x.x.x.x.x.x.x.x.x.x.x.x.x.x.x.x.x.x.} L u = & & = 4 4 4 4 < = < > 1 4 4 1 < < < t H o.x.x.x.x.x.x.x.x.x.x.x.x.x.x.x.x.x.x.x.",
"x.x.x.x.x.x.x.x.x.x.x.x.x.x.x.x.x.x.x.x.x.o.( l > $ $ < 3 = = = ; = < 3 3 3 < < 1 s T o.x.x.x.x.x.x.x.x.x.x.x.x.x.x.x.x.x.x.x.x.",
"x.x.x.x.x.x.x.x.x.x.x.x.x.x.x.x.x.x.x.x.x.x.x.} C > o $ = $ # % % % < < % % = 5 l [ o.x.x.x.x.x.x.x.x.x.x.x.x.x.x.x.x.x.x.x.x.x.",
"x.x.x.x.x.x.x.x.x.x.x.x.x.x.x.x.x.x.x.x.x.x.x.x.o.T s & o     @ @ # % % % < g U ..x.x.x.x.x.x.x.x.x.x.x.x.x.x.x.x.x.x.x.x.x.x.x.",
"x.x.x.x.x.x.x.x.x.x.x.x.x.x.x.x.x.x.x.x.x.x.x.x.x.o.} L u o     @ # 1 g C T } o.x.x.x.x.x.x.x.x.x.x.x.x.x.x.x.x.x.x.x.x.x.x.x.x.",
"x.x.x.x.x.x.x.x.x.x.x.x.x.x.x.x.x.x.x.x.x.x.x.x.x.x.x.o.} L H H H L R } o.x.x.x.x.x.x.x.x.x.x.x.x.x.x.x.x.x.x.x.x.x.x.x.x.x.x.x."
};
