/* XPM */
static char *alex_better[] = {
/* columns rows colors chars-per-pixel */
"64 64 244 2 ",
"   c None",
".  c #242E38",
"X  c #2A3534",
"o  c #2A353D",
"O  c #2E3A3B",
"+  c #263139",
"@  c #323B3B",
"#  c #3C453D",
"$  c #3B463F",
"%  c #454B3F",
"&  c #2B3543",
"*  c #2E3A43",
"=  c #2D3B4A",
"-  c #263342",
";  c #333C43",
":  c #3A3C45",
">  c #343D4B",
",  c #3A3E4A",
"<  c #333F50",
"1  c #344145",
"2  c #3C4443",
"3  c #35434C",
"4  c #3C444C",
"5  c #3D4A4A",
"6  c #3E4944",
"7  c #3C4552",
"8  c #3E4B52",
"9  c #364450",
"0  c #434C44",
"q  c #42444C",
"w  c #424B4C",
"e  c #4A4E4C",
"r  c #4A4B49",
"t  c #45514B",
"y  c #4B534C",
"u  c #4B5448",
"i  c #54574B",
"p  c #424552",
"a  c #444C53",
"s  c #4A4C54",
"d  c #4A4D5B",
"f  c #464A57",
"g  c #544C5A",
"h  c #455252",
"j  c #4B5453",
"k  c #4C5A53",
"l  c #45505A",
"z  c #4B525C",
"x  c #4C5C5A",
"c  c #535655",
"v  c #525C53",
"b  c #53535D",
"n  c #555B5B",
"m  c #5B5A58",
"M  c #624F5F",
"N  c #546254",
"B  c #59665B",
"V  c #64635D",
"C  c #656857",
"Z  c #73725B",
"A  c #75625E",
"S  c #4C5665",
"D  c #545562",
"F  c #5B5B63",
"G  c #5C5B6A",
"H  c #585865",
"J  c #575369",
"K  c #625C6B",
"L  c #645A67",
"P  c #6C5C74",
"I  c #5A6666",
"U  c #5E6476",
"Y  c #636564",
"T  c #63626C",
"R  c #696868",
"E  c #736D69",
"W  c #687569",
"Q  c #74746C",
"!  c #7A766A",
"~  c #646373",
"^  c #6A6574",
"/  c #6C6C7B",
"(  c #6A6977",
")  c #736C73",
"_  c #736C7C",
"`  c #7B6C7C",
"'  c #766778",
"]  c #697677",
"[  c #757572",
"{  c #7B7B72",
"}  c #7D737C",
"|  c #7D7A7A",
" . c #757478",
".. c #837B7C",
"X. c #8C7C7D",
"o. c #847876",
"O. c #977C7C",
"+. c #827174",
"@. c #7B8373",
"#. c #85847B",
"$. c #8B847B",
"%. c #888779",
"&. c #93837C",
"*. c #948D7E",
"=. c #908176",
"-. c #969379",
";. c #88866C",
":. c #A39B7A",
">. c #6A6C83",
",. c #776D83",
"<. c #7B7382",
"1. c #7C748B",
"2. c #7C7C8B",
"3. c #757685",
"4. c #797A94",
"5. c #697691",
"6. c #6A7495",
"7. c #866D85",
"8. c #847B84",
"9. c #8C7C84",
"0. c #81768C",
"q. c #847C8B",
"w. c #8B7D8C",
"e. c #897588",
"r. c #967B87",
"t. c #847C93",
"y. c #8B7994",
"u. c #937C94",
"i. c #9A7895",
"p. c #996E8C",
"a. c #A0749D",
"s. c #A27C85",
"d. c #A279A4",
"f. c #7E8289",
"g. c #7A8298",
"h. c #7686AC",
"j. c #878382",
"k. c #8D8484",
"l. c #8D848C",
"z. c #898888",
"x. c #948283",
"c. c #9B8385",
"v. c #9B8C84",
"b. c #94838C",
"n. c #9C858B",
"m. c #948B8C",
"M. c #9D8A8C",
"N. c #928C83",
"B. c #959282",
"V. c #9B9485",
"C. c #9C948B",
"Z. c #9A988A",
"A. c #868494",
"S. c #8C8395",
"D. c #8C849A",
"F. c #8D8A99",
"G. c #948392",
"H. c #9C8493",
"J. c #938B94",
"K. c #9B8B95",
"L. c #938B9C",
"P. c #9C8C9A",
"I. c #96839A",
"U. c #9C9293",
"Y. c #9C949C",
"T. c #999899",
"R. c #8B968E",
"E. c #A2898C",
"W. c #A0958C",
"Q. c #A19B8A",
"!. c #A19787",
"~. c #A28695",
"^. c #A38A93",
"/. c #A0849B",
"(. c #A58C9B",
"). c #A98C9A",
"_. c #A39393",
"`. c #A4939B",
"'. c #AA939D",
"]. c #AD9A9E",
"[. c #A69998",
"{. c #B29A9E",
"}. c #A9A58B",
"|. c #B3AC8A",
" X c #ACAB9C",
".X c #A8A795",
"XX c #B3AC95",
"oX c #B3AB9B",
"OX c #BBB394",
"+X c #BBB29C",
"@X c #B8B39A",
"#X c #BEB289",
"$X c #9A8CA3",
"%X c #988AA4",
"&X c #9D94AA",
"*X c #9A98A4",
"=X c #838AAD",
"-X c #A286A3",
";X c #A58BA8",
":X c #A393A3",
">X c #AB94A2",
",X c #AD9AA1",
"<X c #AC94AC",
"1X c #A799AB",
"2X c #B29DA3",
"3X c #B29AAB",
"4X c #B197A6",
"5X c #AC95B3",
"6X c #AC99B4",
"7X c #A797B2",
"8X c #B29CB4",
"9X c #B19CBA",
"0X c #99A3A8",
"qX c #ADA3A4",
"wX c #AAA6A4",
"eX c #B4A3A4",
"rX c #B4ABA5",
"tX c #B9ACA4",
"yX c #B5A3AB",
"uX c #B6ABA9",
"iX c #BCABAB",
"pX c #B9A4A9",
"aX c #BAB2A4",
"sX c #BDB3AB",
"dX c #B7B4A4",
"fX c #A9ABB7",
"gX c #B8A5B5",
"hX c #BBB3B4",
"jX c #A8B4B6",
"kX c #9AA59D",
"lX c #C5BB94",
"zX c #C3B899",
"xX c #C3B98E",
"cX c #C1B6AC",
"vX c #C5BCA6",
"bX c #C1B1B1",
"nX c #C9C19D",
"mX c #CAC4A8",
"MX c #CECDB4",
"NX c #B3BDC9",
"BX c #AEB2C2",
"VX c #BAC9D5",
"CX c #B7C9CE",
"ZX c #D8DAC0",
/* pixels */
"                                                  N N N N k k k                                                                 ",
"                                              t y v v v v k k k k t 0 t k k t                                                   ",
"                                          t t t t y t y k k h h w 6 5 w h h w 6 6 6 # 6                                         ",
"                                      0 0 0 t t r w w w t h h a 5 5 5 5 w t e u i i i r 0 6                                     ",
"                                    # # 0 u i m c c c c j e w 5 2 5 w e j c V Q @.;.! Z C u % #                                 ",
"                                  # 0 u m V V E E E ) R Y n j w q a b F R [ j.Z..XXX}.:.-.Z i % 0                               ",
"                                # 0 i V E ! o.o.X.X.9.8.} ) T F n G ^  .j.m..XsXMXMXmXOX|.:.;.C u u                             ",
"                              $ 0 m E +.o.X.&.x.x.b.b.b.w.8.} _ _ } 8.l.U.].tXmXMXZXMXnXlX#X|.-.Z i u                           ",
"                            2 6 m E o.X.O.&.x.c.n.n.H.H.H.G.G.w.w.l.K.`.].eXtXcXmXMXMXmXlXlXxX|.-.Z i v                         ",
"                          u 2 y E o.=.&.&.x.c.n.n.n.^.~.~./.P.P.K.K.`.[.].eXeXtXcXvXmXmXnXlXlXlX|.-.C v B @.                    ",
"                          t 0 V o.=.&.&.x.c.n.n.n.^.~.(.(.(.(.(.(.`.'.'.].{.eXtXsXcXvXvXvXzXlXlXlX|.@.N B W                     ",
"                        B w c ! =.*.v.c.c.n.M.M.^.~.(.(.(.(.(.(.(.>X>X].].,X2XpXuXiXsXvXvXzXzXlXlXOX-.C N B W                   ",
"                      N.N w Y %.*.v.v.v.v.M.M.^.^.~.(.(.(.(.(.(.'.>X,X,X].,X].eXpXuXtXaXaX+XzXzXlXOX}.! N N I                   ",
"                      @.v j Q *.B.V.V.v.v.n.n.^.~.~.(.(.(.'.'.>X>X>X,X,X].].].2XeXpXuXuXtXtX+X+XOXOX|.;.B k B                   ",
"                      W t n o.B.V.V.V.v.n.M.M.^.^.^.(.).'.'.>X>X>X>X,X,X].].].2XeXpXuXuXrXtXaX+XOXOX|.%.B k B W                 ",
"                    wXI 6 Y %.V.!.!.V.v.M.M.M.^.^.^.).'.].].2X2X2X2X,X,X2X2X2XeXeXpXuXrXrXtXtX@XOXOX|.-.V k x I                 ",
"                    kXB w Y #.V.!.!.V.M.M.M.^.~.(.).'.].2X2XeXpXpXeXeXeXeXeXuXtXtXtXuXuXtXtXtX@XOXOX|.B.R k h N                 ",
"                    R.c 0 V { B.!.!.!.C.^.^.^.(.'.>X>X4X2X2XpXpXpXeXeXeXtXiXsXsXsXsXsXsXuXtXaXXX@XXX}.B.R h h t                 ",
"                  CX] 6 6 m ! *.!.W.W.W.^.^.(.>X>X<X<X3X3XyXyXyXeX2X2XeXyXiXsXcXcXcXcXsXsXsXaX@XXXXX}.*.Y w 5 t                 ",
"                  jXB @ 2 v ! *.!.W.C.n.b.K.P.:X1X<X5X5X8X8XgXyX3X3X3X3XyXyXgXgXhXbXbXsXsXsXaX+XXXXXQ.%.Y 5 1 8                 ",
"                  R.k X $ m #.V.V.v.k...} 8.q.S.L.%X;X7X5X6X9X9X8X6X6X6X6X6XgXgXgXhXhXsXsXsXsXaX@XXXZ.{ n 4 3 8                 ",
"                  ] 6 X 6 Y *.V.B.$.| ) ^ ~ ~ ~ ( _ 0.D.&X7X6X6X6X6X6X7X7X7X7X7X7XwXwXwXwXrXaXdX+XXXV.Q j 3 3 5                 ",
"                  x O X 0 Q B.V.%...} _ / / ~ H b b G _ t.%X&X7X7X7X7X%X%XD.A.2.2.2.2.z.R.T. X@X+XXXZ.Q a 3 3 5                 ",
"                ] h X X e { V.*.#.8.q.q.1.3./ K b g b K ' 0.D.%X%X%X%Xt.1.,.^ H D H U / 3.z.Z..XXXXXQ.[ w * 3 8                 ",
"                  w X X y #.V.B.k.l.l.0._ ( K b b D F L T <.S.$X%X%XD.1./ ^ G D H ~ / 3.2.2.z.Z.}.XX}.| w X 1 5                 ",
"                  k O X c %.Z.Z.m.l.} ^ / U z p J >.G L ^ 8.K.:X:X1X%Xq. .( K K P ^ _ 2.A.D.F.J.T.XX.X#.s . O $                 ",
"                  m @ @ B *.Z.Z.N...) ^ 4.4.I H 6.h.,.^ ) ..M.'.3X1X*XA.<.( ^ / ~ D G / 3.q.F.*XT. XXXN.j . X @                 ",
"                X.! i 0 Y N.Z.C.x.8...} q.t.>.>.h.=X1.` } ..c._.2XqXY.A.<.,.1.4.>.f S 5.5.( 8.L.*X XoXB.c + X @                 ",
"                r.X.! V Q B.Z.C.m.m.l.j.8.8.1.1.1.,._ ` o.X.c.).2XeXK.w.0.0.y.=X6.H U h.g./ } l.T. XoXZ.m o X @                 ",
"              [.s.E.v.o.#.V.!.W.U.U.J.J.l.w.q.1.,._ ` ..X.r.c.).eXeX`.b.q.0.0.t.4.,.4.=XD.q.q.l.T. X@XQ.V @ @ #                 ",
"              T.s.E.W.$.%.C.W.W.U.U.Y.P.K.G.w.w.q.e.9.x.c.c.E.).pXpX[.K.S.t.1.1.1.0.t.D.F.J.T.T.[.wXaX.XE 5 w r V               ",
"              T.O.E.M.$.%.C.W._._.`.`.(.H.H.u.G.u.b.c.c.c.r.E.{.iXiX].`.P.L.D.A.t.t.S.S.L.Y.1XwXwXrXdX.XQ h e i V               ",
"              0Xc.(.n.X.$.V.W._.`.`.(.(.~././.H.H.H.n.n.c.r.E.{.bXiX{.[.'.:X$XL.L.L.P.P.'.,XrXuXaXdXaX.X{ c V A !               ",
"              0Xn.~.H.r.$.V.W._._.^.^.~./.(.-X-X/./.~.n.c.c.^.4XpXiXeX].,X1X1X>X:X`.'.,XeXiXiXiXaXdX@X.X{ Y [ +.$.              ",
"              0Xn.H.H.9.#.B.W._.^.^.^.).>X<X<X;X-XH.H.r.c.E.).4XgXiXpX{.>X<X6X<X<X4X4XpXiXbXiXiXiXaX@X}.{ [ m.O.&.              ",
"              *Xc.n.b.9.{ N.C._._.`.'.>X<X5X5X-Xi.r.r.r.n.(.>X8XgXgXiXeX].:X<X5X<X3X3XgXgXbXiXiXuXrXoXZ.Q } Y.E.&.              ",
"              *Xx.n.c.X.Q N.C._._.`.'.<X5X5X;Xi.7.e.r.r.E.(.<X9XgXgXyX2X].(.I.;X5X5X9X8XgXgXiXuXrXrX XB.E } `._.N.              ",
"              0Xm.K.K.9.E #.C._._.`.>X<X<X;Xi.7.+.e.e.e.9.u.-X<X6X<XP.G.G.u.y.i.-X5X5X9XgXgXgXuXrXrX X*.R +.`.[.B.              ",
"                Y.K.P.k.E #.m.C.U.`.(.-X$Xu.7.' <.7.+.` ' ` e.u.I.S.q.1.0.t.D.y.u.-X<X5X9XgXyXyXwXwX.X%.Q x.[.oX                ",
"                *XK.K.k.R { N.m.M.K.K.I.u.7.P K T P L F b b K ' ,.( ^ K ~ >.4.0.7.u.-X<X6X7X1XqXwX X.X%.j.[.oXoX                ",
"                  Y.K.X.R [ #.N.m.m.J.G.e.T g p r q : : O ; 3 d D d f 4 q z U ^ P ` u.$X;X7X:X1X X.XZ.@.m.qXtXtX                ",
"                      o.V E ..k.k.l.m.S._ b , ; O o + + + - & > > > ; & o ; , p s G ,.I.$X$X*X*XT.T.z.{ m.qXiX                  ",
"                        j Y { j.j.k.l.q.T 4 ; ; : : : : : , d D D p , * ; ; ; ; , p K 0.I.L.L.L.T.R.@.[ U.qXyX                  ",
"                          n Q | | ..j.<.F a s p g g g M M L P ,.,.P M g g D D f 7 4 d ( A.S.A.A.F.R.[ R m.qX                    ",
"                          c E [ | | |  .~ / ^ L L ' e.w.u.G.$X%X%X%Xu.e.7.` ^ H b d f T f.A.f.2.f.f.R I ..                      ",
"                          y Y E [ ) )  .2.A.t.<._ q.T.wXfXhXCXNXNXVXBXfX1XL.,.G K ~ T / 2.2.3.] ] ] I n                         ",
"                          t n Y R Y Y / q.L.L.S.w.w.J.*XfXNXVXVXVXVXCXNXjX*X2.^ ,.2.2.2.3./ U I I F j                           ",
"                            y n F n n T 3.A.F.L.G.r.p.r.P.1XfXfXjXBXfXfX0XS.0.t.D.F.A.2./ H z z z l w                           ",
"                            j e e s s D ( 2.S.J.P.H.r.p.p.p.i.i.i.i.i.i.i.p.i.%X$X%XA.3.H a 8 l a 5 5                           ",
"                            I 5 2 2 w s I 3.A.G.K.P.H.i.i.a.d.a.i.a.d.-X-X$X$X&X&XF.3.U z 8 8 l a 5                             ",
"                              1 @ 2 4 p D ~ <.q.b.G.G.w.e.e.y.7.7.y.u.%X&X&X&X&X%Xf.U S l 8 l l a w                             ",
"                              1 @ ; ; 1 4 f G / <.8.} ) K G D D J G ( 1.A.L.L.D.A./ S l l l l a w                               ",
"                                @ O O * * ; 7 z F T T F s q 4 4 q p d T _ <. ._ ( H 8 l S l 8 4 h                               ",
"                                  X o o o o & ; q s s r q s D G H D b n F L F n z 4 4 l l 8 4 h                                 ",
"                                    o o o o o o ; : : q s H ~ ~ G T F s e w q q 1 ; 4 8 4 3 x ]                                 ",
"                                    O O o o o o o ; : 4 s D G G b D D s w 4 1 1 ; ; 1 1 ; a I                                   ",
"                                      O O o o o * ; , q f d d f p s z a w 4 3 1 1 1 1 * 1 j                                     ",
"                                        ; ; O o * > > p p p p 4 3 4 4 w 4 4 4 4 1 1 ; * 4                                       ",
"                                          ; O * ; ; > 7 7 7 7 3 > 3 3 4 7 9 9 3 3 1 ; ;                                         ",
"                                              * * * * 3 9 3 > > < > 3 9 9 9 3 3 3 1                                             ",
"                                                o o o * > * & = = = 3 3 = = = 3 3                                               ",
"                                                    + o o . . - & & = = * * * =                                                 ",
"                                                      + . . . . - - - - &                                                       ",
"                                                          . . . - +                                                             "
};
