/* XPM */
static char *alex[] = {
/* columns rows colors chars-per-pixel */
"64 64 249 2 ",
"   c #010B0E",
".  c #12090B",
"X  c #061114",
"o  c #0C1316",
"O  c #0C1519",
"+  c #0E191B",
"@  c #101417",
"#  c #111C1E",
"$  c #17211F",
"%  c #131F21",
"&  c #142122",
"*  c #1D2722",
"=  c #1F2935",
"-  c #222C26",
";  c #332825",
":  c #27332B",
">  c #232C37",
",  c #2B3737",
"<  c #2B343C",
"1  c #323A3C",
"2  c #35433C",
"3  c #434C3F",
"4  c #2C3845",
"5  c #343D43",
"6  c #373C47",
"7  c #423E45",
"8  c #374745",
"9  c #3A4346",
"0  c #35434B",
"q  c #3C444C",
"w  c #3C4B4B",
"e  c #3E554F",
"r  c #3A4552",
"t  c #3B4653",
"y  c #3F5651",
"u  c #3F5852",
"i  c #384B66",
"p  c #434B44",
"a  c #42454B",
"s  c #434C4D",
"d  c #49494A",
"f  c #574E48",
"g  c #485349",
"h  c #4C5A4C",
"j  c #55594D",
"k  c #434651",
"l  c #434C55",
"z  c #4B4C55",
"x  c #454C59",
"c  c #4B4D59",
"v  c #524D55",
"b  c #425551",
"n  c #4B5453",
"m  c #435A54",
"M  c #4B5C54",
"N  c #4B545B",
"B  c #565B57",
"V  c #54535D",
"C  c #63555B",
"Z  c #51624B",
"A  c #4C6157",
"S  c #48615A",
"D  c #4B645C",
"F  c #546355",
"G  c #52665C",
"H  c #5C635A",
"J  c #54695D",
"K  c #5B6C5D",
"L  c #5F705C",
"P  c #6E6C55",
"I  c #65665C",
"U  c #62725D",
"Y  c #4B5864",
"T  c #585967",
"R  c #53546A",
"E  c #645C6A",
"W  c #6C5F75",
"Q  c #4D6761",
"!  c #4E6862",
"~  c #536B61",
"^  c #5A6D61",
"/  c #5B6569",
"(  c #5D7264",
")  c #5D776C",
"_  c #5B6775",
"`  c #5D7573",
"'  c #656768",
"]  c #6B6D6C",
"[  c #746D69",
"{  c #637463",
"}  c #677766",
"|  c #657B6B",
" . c #6A7C6B",
".. c #76756A",
"X. c #696976",
"o. c #776B79",
"O. c #736C7B",
"+. c #687777",
"@. c #787977",
"#. c #7B747D",
"$. c #887674",
"%. c #857A7A",
"&. c #6D816C",
"*. c #73856F",
"=. c #6C8473",
"-. c #6D887A",
";. c #748A74",
":. c #768877",
">. c #7C927C",
",. c #7C977D",
"<. c #848C74",
"1. c #888679",
"2. c #93887C",
"3. c #98957A",
"4. c #ABA47E",
"5. c #576D8B",
"6. c #776D84",
"7. c #6B7584",
"8. c #7B7485",
"9. c #777988",
"0. c #697690",
"q. c #747FA3",
"w. c #8C6C85",
"e. c #837C84",
"r. c #87788A",
"t. c #957C8A",
"y. c #877B93",
"u. c #977B95",
"i. c #A1749D",
"p. c #A37AA6",
"a. c #798586",
"s. c #7A9484",
"d. c #789588",
"f. c #768897",
"g. c #758F97",
"h. c #7194AD",
"j. c #7DA1AE",
"k. c #7AA4B9",
"l. c #6D9EC0",
"z. c #77A7C7",
"x. c #7BADD0",
"c. c #848185",
"v. c #8A8589",
"b. c #9A8285",
"n. c #958986",
"m. c #9C858B",
"M. c #9D8A8C",
"N. c #869A86",
"B. c #989686",
"V. c #9C9585",
"C. c #9D948B",
"Z. c #888596",
"A. c #938492",
"S. c #9A8898",
"D. c #889798",
"F. c #9A9697",
"G. c #A2878D",
"H. c #A1968A",
"J. c #A38B94",
"K. c #A48897",
"L. c #A48C9B",
"P. c #A49497",
"I. c #AB949D",
"U. c #AD9A9E",
"Y. c #B19B9F",
"T. c #8AA58A",
"R. c #92AA8D",
"E. c #87A695",
"W. c #96A896",
"Q. c #98B398",
"!. c #A8A48C",
"~. c #B6AD88",
"^. c #A7A898",
"/. c #B3AC99",
"(. c #A7B19A",
"). c #B9B299",
"_. c #998BA4",
"`. c #8292A9",
"'. c #9B95A7",
"]. c #A48AA7",
"[. c #AC93A3",
"{. c #A896A8",
"}. c #B29CA3",
"|. c #B299AD",
" X c #AB98B4",
".X c #B29BB6",
"XX c #8BA6A8",
"oX c #98A9A7",
"OX c #8DB1A9",
"+X c #98B6A6",
"@X c #89A9BA",
"#X c #94ACB5",
"$X c #9AB5B6",
"%X c #A8A7A6",
"&X c #B4A3A3",
"*X c #B5ABA5",
"=X c #B7A8A7",
"-X c #BBACAB",
";X c #A8B7A3",
":X c #BAB3A3",
">X c #B9B5A9",
",X c #B9A6B4",
"<X c #A4BAB8",
"1X c #C3B98F",
"2X c #C5BA96",
"3X c #C2B8AA",
"4X c #C1B0B0",
"5X c #A8C5A8",
"6X c #B2C8AD",
"7X c #A9C7B5",
"8X c #B4CDB8",
"9X c #B5D2BD",
"0X c #B9D4BB",
"qX c #C8CBB2",
"wX c #8AB0C9",
"eX c #83B5D9",
"rX c #AEBBC6",
"tX c #AAC4C6",
"yX c #B6CAC7",
"uX c #BAD5C2",
"iX c #B9D6C7",
"pX c #BED9C4",
"aX c #B8CAD4",
"sX c #BCD7D5",
"dX c #BFDDE2",
"fX c #C3DBC4",
"gX c #C4D7C8",
"hX c #C4DDCA",
"jX c #D6DBCD",
"kX c #C2DCD8",
"lX c #C7E1CA",
"zX c #CBE2CB",
"xX c #CDE3D3",
"cX c #C4E2DE",
"vX c #D6EAD8",
"bX c #DAEED9",
"nX c #E1EBDD",
"mX c #C2DDE2",
"MX c #CDE5E8",
"NX c #D4EAEC",
"BX c #DAF0F3",
"VX c #E7EBE4",
"CX c #E3F3E2",
"ZX c #ECF6E9",
"AX c #F1F7ED",
"SX c #E9F9FA",
"DX c #F6F9F4",
"FX c #F3FDFD",
"GX c #FEFFFE",
/* pixels */
";.>.>.,.,.,.s.N.T.T.R.Q.Q.R.R.R.T.T.T.s.;.-.s.N.T.N.>.;.*.;.;.;.>.>.>.>.;. . .| | ( ^ ~ ^ ^ | -.d.d.| F M m m m m m b b b b y b ",
"T.Q.Q.Q.5X5X5X6X8XqXlXzXzXzXfXfXfXfX0X5X+XQ.Q.Q.Q.Q.T.N.N.N.N.N.T.N.N.N.N.<.>.>.;.=.| ) ) | -.d.E.E.;.( ~ ! Q ! Q Q D D D A S D ",
"R.Q.5X6X0X0XlXzXbXCXZXZXZXZXCXCXCXnXvXfX8X5X(.R.T.N.<.>.>.;.;.>.>.>.*.;.>.>.<.>.>.=.| ) ) | -.d.E.E.-.( ~ ! ! ! ! Q D D A D D D ",
"8XqXfXfXzXzXvXbXCXZXAXAXAXZXZXCXCXCXbXzX0X;XR.N.;.&. .} { { { U U { U K U  .*.*.*.*.=. .| | -.d.E.d.-.( ~ ~ ! ! ! Q Q D D A D D ",
"VXAXZXZXZXZXZXAXDXDXDXDXDXCXvXvXxXzXfX0X;XT.*.} L K K F F H F g h F K F h G K K { &.;.*.=.=.=.s.E.D.-.( ~ ~ ! ! ! ! Q D D D D D ",
"DXGXGXGXGXGXGXGXGXGXGXGXGXAXnXbXhX6X(.R.>.{ F h h M M M M M n p g M M n g g n n M { &.&.*.*.;.s.E.d.-.( ~ ~ ! ! ! ! Q D D D D D ",
"DXGXGXGXGXGXGXGXGXGXGXGXGXGXDXAXjXW.&.K h g s s g g n M n b w w w s g p p p p 8 w M K { *.;.;.s.E.d.-.( ~ ~ ! ! ! Q D D Q D D D ",
"DXGXGXGXGXGXGXGXGXGXGXGXGXGXDXnX6X;.h p p g g g g s s b s w 8 w w s g j H I I j g p g G  .*.;.s.N.d.=.( ~ ! Q Q Q Q D Q Q D A A ",
"DXGXGXGXGXGXGXGXGXGXGXGXGXGXAXqX;.j 3 p j B I I ' ' B V z a 9 s n B ' ..B.B.3.3.$.P 3 g K  .;.>.N.s.=.( ^ ~ J J D Q D D D D S A ",
"DXGXGXGXGXGXGXGXGXGXGXGXDXDXVX^.3 p j I [ ..$.%.%.%.#.O.' V V T ] #.v.F.>XqXqX).~.3.P j j U &.>.s.s.=.| ^ G G D D D D D D D A A ",
"DXGXGXGXGXGXGXGXGXGXDXAXZXbX>X} p j [ $.$.2.b.b.b.m.A.r.#.O.O.#.e.S.U.=XqXjXqXqX1X~.4.<.j h { ;.s.s.;.{ ^ G D D G D D J A A A S ",
"DXGXGXGXGXGXGXGXGXGXGXGXDXgX*.p j ..$.$.2.b.b.m.m.m.m.m.A.v.v.A.F.U.&X=X3XqXqXqX2X2X1X~.<.j F  .s.s.=.| ^ G G D D D D G A S S S ",
"DXGXGXGXGXGXGXGXGXGXGXGXZX;Xh z [ $.2.2.b.b.m.m.G.K.K.K.K.S.S.S.P.U.}.&X=X3X3XqXqX2X2X1X~.<.h ( ;.s.=.} ^ G D D D D D ^ D A S S ",
"DXGXGXGXGXGXGXGXGXGXGXGXjXN.8 I $.2.2.b.b.M.M.G.K.K.L.L.L.L.L.I.I.U.Y.&X=X-X3X3X3X2X2X2X2X3.H F | ;.=.| ^ G D D D D ~ ~ G D S S ",
"DXGXGXGXGXGXGXGXGXGXGXDX>XK n ..2.n.n.n.m.M.J.K.K.L.L.I.L.K.[.[.[.U.U.}.&X=X-X:X3X2X2X2X2X~...F K | =.| ( D D D D ! G ~ ~ D D D ",
"DXGXGXGXGXGXGXGXGXGXGXnXB.8 I 1.V.V.V.M.M.m.m.J.L.L.L.I.I.[.[.[.[.U.U.U.}.=X=X=X:X:X).).1X~.<.h M ^  .} ( ~ ~ ~ G ^ ~ ~ G ~ D D ",
"DXGXGXGXGXGXGXGXGXGXGXjX;.w ] 2.V.V.V.M.m.M.J.J.K.L.I.I.I.[.[.[.[.[.U.U.}.=X*X*X*X*X).).).~.3.H M ^ &.} { ^ J ^ J ^ ^ ^ ^ ^ ~ D ",
"DXGXGXGXGXGXGXGXGXGXGXyX' g ..B.H.H.V.M.M.M.m.J.K.I.I.I.}.}.}.}.}.}.Y.&X&X=X=X=X*X*X:X).).).3.H n G |  . .{ { ^ K ( ( ^ ^ ^ ^ ~ ",
"DXGXGXGXGXGXGXGXGXGXDX%X8 n ..B.H.H.V.M.G.G.J.L.I.I.}.}.&X=X=X&X&X&X=X=X=X>X>X=X=X*X:X).)./.V.' b m K  .} { { { { { { ( K J ~ ~ ",
"DXGXGXGXGXFXFXFXFXFXVXD.1 g [ 2.H.H.C.H.J.J.L.[.[.[.}.&X&X=X&X&X&X=X-X>X3X3X3X>X>X>X:X)././.B.] s s h K { }  . .{ { { ^ G G G ~ ",
"DXGXGXGXFXFXFXFXSXSXyX+., p I 1.V.H.H.M.M.L.[.{.{.|.|.|.,X=X}.}.}.&X=X-X4X4X3X3X>X>X:X)./.!.3.' 8 8 n F } }  .| { ( ^ ^ ^ D ~ ~ ",
"FXFXFXFXFXSXNXMXsXkXoXM , p [ 3.V.C.n.%.e.Z.S._.{. X X X.X.X|.|. X.X.X,X,X,X-X>X>X>X:X).).!.1./ 0 0 n F U { | { { ( ^ ^ ^ ~ ~ G ",
"SXFXFXFXSXNXBXNXsX#X+.w , g @.V.V.1.@.] X.X.X.X.6.y._. X X X X X X X X X X X X%X%X=X:X:X).!.@.n 0 0 g K U U { { { ^ G J ~ G G G ",
"SXFXFXFXSXBXMXsX7XXX` 1 , B 1.V.2.@.#.O.X.X.T c Y T 6._._.{.{.{.'._.Z.y.9.9.9.9.v.F.^.).).!.@.l 0 0 n U } { { ^ ^ J F A G G D D ",
"SXFXFXFXBXNXMXdXkX$X/ : , H 2.B.1.c.v.r.8.O.E V V T W 6.Z._._._.Z.8.6._ R T T X.O.8.n.!./.^.1.q < w M U {  .} ( ^ G A A A A D A ",
"SXFXFXFXSXNXMXdXaX#X~ - , ' n.B.n.v.e.O.X.T c c T V E o.A._._.'.y.6.X.T T E O.8.Z.Z.Z.F.^./.1.s > 8 h K { } { J J G A m m M M M ",
"SXFXFXFXSXBXNXdXaX#X' , , ] B.C.n.e.] X.0._ l _ h.W ' o.m.[.{.{.Z.8.X.E E T T X.8.Z.S.F.^./.B.z > 1 g F K { { G D G A m m m m m ",
"BXSXSXSXSXBXNXNXmX%X@.d 2 ..B.C.n.e.#.8.y.9.7.q.`.o.o.#.b.P.&X{.A.8.6.9.0.R c 5.7.O.v.'.%X/.B.n > , 8 h F { { A m A A m m m b b ",
"MXMXMXMXMXMXmXmXsX{.%...H 1.V.C.n.A.v.c.r.r.8.9.9.o.#.%.b.J.&XU.A.r.r.y.`.7.T h.f.X.#.Z.^./.C.B > , 8 n F { K m m m m m m m b b ",
"yXyXyXyXyXtXtX<X<XJ.G.M.@.1.H.H.C.F.S.A.r.r.8.6.o.#.%.t.b.I.=XU.A.Z.y.y.y.6.6.Z.Z.c.v.Z.P./.!.' 1 9 g H K K F m m m m m m m b b ",
";X(.;X;X;XoXoXXXoXm.G.H.1.2.H.H.P.F.F.S.A.t.r.r.r.t.b.b.b.I.=X&XP.S.Z.y.8.8.y.Z.Z.S.F.F.%X:X^...q s j ' { K A m m m m m m m b b ",
"^.(.(.(.W.W.XXk.oXb.G.G.%.n.H.H.P.P.L.K.K.S.S.A.m.m.b.b.G.Y.4X=XI.P.S.S.Z.y.Z.S.F.{.%X=X=X:X^.%.s B C } K J A b m m m m m b b y ",
"^.(.(.(.W.D.j.k.#XM.J.S.%.2.C.H.P.J.K.K.K.L.].K.K.G.m.t.G.}.4X=XU.I.{.{.].S.L.L.[.=X-X>X:X:X^.1.B ..$...K G M b b b b b b u y y ",
"^.(.(.%XW.j.j.k.#XF.m.S.e.1.C.P.P.J.K.L.].].].K.S.m.t.m.K.|.,X-X&XI.{.|.{.[.}.}.-X4X-X-X:X:X^.;.[ n.$. .G A m b b y u u y y y y ",
"^.(.;XoXXXj.k.k.XXS.t.m.%.1.C.P.P.P.I.[. X X].u.t.t.t.J.[.|.,X,X=XY.[.{. X|.|.,X,X4X-X-X=X/.!.@.%.P.2.{ A m b b b u u u y y y y ",
"W.(.oX#X@Xz.z.z.@XS.b.m.$.@.C.C.P.L.[.|. X].u.w.w.t.b.J.[..X,X,X}.I.J.S.]. X X.X,X,X-X=X=X/.B.[ e.P.B.J M b b b b u u u y y y y ",
"W.oX#X@XwXx.x.x.wXF.M.F.%.@.n.C.P.P.[.{.].u.w.%.r.w.%.t.S.]. X].A.t.A.y.u.]. X X.X,X,X=X=X/.B.' e.P.C.F m b u u u u u u y y y y ",
"W.oX#XwXeXeXeXeXeX#XS.S.%...v.C.C.S.L.S.u.%.W o.o.o.X.X.o.r.r.8.8.6.9.Z.r.u.]. X X.X%X%X=X^.2.[ C.^.C.F A m b u u u b u u y y y ",
"W.oX#XwXx.eXeXeXeXwX'.S.%.] ;.n.n.M.S.u.w.E V V v d a 6 c T E T Y c T 6.6.o.u.].{.{.{.%X^.^.1.c.=X/.B.A A b b y b y b b u y y y ",
"W.#XwXwXx.x.x.x.x.x.@X'.8.] @.v.v.v.A.r.' a 6 1 < < > < 4 6 6 6 4 1 5 q c V o.u._.].'.'.W.B.;.v.=X&X<.A m b b y y y b b u y y y ",
"D.XX@Xz.z.l.k.k.l.z.z.@XD.+.] 1.c.v.v.8.N 5 6 6 5 5 5 4 k c z 6 4 5 5 5 6 q Y 8.S._.F.F.F.v.@.n.&XP. .A M b b e e y b u y y y y ",
"N.D.j.k.h.h.g.h.h.k.k.@XXX+.' @.@.%.c.#.c z z v C E C E o.w.w.W V V R c k q q E y.Z.Z.Z.D.;.] v.F.a.^ A A b e e e y b b y y y y ",
"Q.+XOXOXOXOXE.E.OX$X$X7X<Xs.H ..@.@.#.O.X.6.E E o.S.u.S.{._.'.'.S.r.w.O.E T c T 9.Z.9.9.a.] ^  .;.=.( A A b e e e y y y y y e y ",
"8X0X9X9X9X8X8X8X9XuXuXpXpXW.' ' ] ] ] 8.Z.Z.y.8.Z.%X%XrXkXaXaXaXrX X'.8.T X.O.6.9.9.+.X.' / K =.;.=.^ A m m b b b b b b e e y y ",
"vXbXbXvXvXvXvXvXvXvXvXvXxX<X+.B ' / / O.Z.Z.S.t.w.A.F.%XrXyXaXtXtX<XoX9.8.y.Z.Z.9._ T Y N M ^ *.;.=.( A m b b b b b y y y e y y ",
"bXCXCXCXCXCXCXnXnXbXbXvXxXyXs.s n n N ' 9.Z.S.S.t.w.w.u.u.u.S.S.].u.w.u._.'.Z.9.X.x r x l M { ;.;.=.J A m b b b y y y y e e y y ",
"fXlXlXlXlXlXlXfXfXqX0X0X8X$Xd.m 1 a s V X.y.A.S.S.K.u.i.p.i.i.i.].].S._.'.'.Z.X.N r x x l F &.;.-.=.J A m b y b y y y e e e e e ",
"R.Q.Q.Q.Q.Q.Q.R.R.T.T.T.N.d.` b 1 9 q l T O.r.A.A.t.r.r.r.w.w.u._._.{.{.'._.7.Y x r x l b J | | =.) A e e w 8 w 8 8 8 8 8 8 8 8 ",
"h Z Z Z Z Z Z h g g g g p 8 2 1 1 1 9 0 q c ' O.e.o.' V z z c T X.9.Z.Z.y.9.T x x x x s G | ( G G M 8 2 1 , , , , , , , , , : : ",
": : : : : : : - - * * * - - - , 2 1 < 4 4 4 q V T T d a a k k k V X.O.] ' T l x Y l q M | =.J 2 , , : * * * & & & & & & & # # # ",
"J J J J J J J J J J K ( ( ( } | ( g , , < < 4 6 6 a a N ' X.T T V n v z z q 6 r x q M  .-.| h - * $ * * & + + + + + + + + O O O ",
"E.E.E.E.E.E.E.E.E.E.E.W.Q.Q.Q.Q.R. .9 , < < < < 5 6 a V ' T V T V a a 9 9 5 5 q 0 w ' s.-.h 2 - * # # $ # + + + + + + + O O O o ",
"yXyX7X7X7X7X7X7X7X7X8X8X9X9X0XuX8XW.H 5 < < < 4 6 6 k c c c k N n s a 9 0 5 0 5 5 / @.;.@.~ * & # + + + + + + + O O O O O O o o ",
"sXsXiXuX9X9X9X9X9X9X0XuXpXhXhXlXfX(...n 9 1 < 4 6 q k r k r 6 k q q q q q 0 5 5 N a.n...a.N.* # + + + O O O O O O O O o o o o o ",
"sXcXsXiXuX9X9X9X9X9XuXuXpXhXhXlXfX(.@.] n 5 1 5 6 r r r r r 6 q r r r 0 0 0 0 N +.D.F...a.oX( # # # # # # # # # # # # # # # # # ",
"sXcXsXsXiXuXuX9X9X0XuXuXpXpXhXlXuXW.1.@.] n 5 1 4 4 0 6 6 6 4 0 r r 0 6 0 0 N X.a.D.^.<.+.<XD.* & & & & & & & & & & & & & & & & ",
"sXkXsXsXiXiXiXuXuXuXuXpXpXhXhXhX7XD.2.#.@.] B 1 < < < < 4 4 4 4 4 4 4 4 0 Y X.9.Z.F./.<.+.<X<X^ & & & & & & % & % % % # # # # # ",
"iXpXpXpXpXpXpXpXpXpXfXhXhXhXxXhXoX;.n.e.8.#.] B s 1 < > > > 4 4 4 4 4 q Y _ 7.a.D.F.^.2.@.$XyXW.+ + + # # + + + + + + + + + + # ",
"uXhXhXhXhXhXhXhXhXhXhXzXxXhXyX$XD.@.n.v.c.v.#.] / s 1 > > = > > > 4 r / _ _ 7.a.D.oX%X2.@.#XaX<X+.M -   O + + + O O O O O O O O ",
"fXhXhXhXhXhXlXzXxXxXxXhX8XoXf.g.f.] v.v.c.v.e.@.] / N 9 < > > 4 0 x / +.X.X.7.a.D.oX%X1.@.$XaXaX$Xg.g.+.1 X O O O O O O O o o O ",
"hXxXxXxXxXxXxXxXvXxXgX<Xg.5.5.f.f.E %.v.c.c.c.e.#.@.X./ c l x Y _ X.X.7.0.9.f.f.D.%XF...X.rXsXsXtXwXwX@XD.B O X O O O O O o O O ",
"xXvXvXvXvXvXvXvXkXyXXX0.5.5.h.h.0.T 8.v.v.v.c.v.c.c.9.O.' _ _ 7.9.a.7.9.f.`.Z.D.'.%XF.I _ $XsXsXyXtXwXk.#XD.+., O O O o O o o O ",
"yXgXgXgXgXgXgX8XoXf.5.i i R 0.g.5.Y X.8.e.e.#.#.8.8.#.] ' T _ +.+.9.7.7.9.9.9.f.D.F.#.f R `.<X<X$X$XXXf.f.@XD./ : @ o o o o o o ",
"@.@.@.@.@.@.@.G N 5 > > 4 r x Y r < 7 d v v d d z v d a 6 6 6 6 9 a k k k k k z V V d ; < Y X.' / / Y _ Y _ Y / : . . . . . . . "
};
