/* XPM */
static char *collectibe64[] = {
/* columns rows colors chars-per-pixel */
"64 64 2 1 ",
"  c #F1FF00",
". c #848484",
/* pixels */
"................................................................",
"................................................................",
"................................................................",
"................................................................",
"................................................................",
"................................................................",
"................................................................",
"...............................  ...............................",
"..............................   ...............................",
"..............................    ..............................",
".............................     ..............................",
".............................     ..............................",
".............................     ..............................",
"............................      ..............................",
"...........................        .............................",
"...........................        .............................",
"...........................        .............................",
"........   ...............          ............................",
"........        .........           ............................",
".........         .......           ............................",
"..........           ....           .............         ......",
"............           .            ...........           ......",
".............                        ........            .......",
"..............                       ......             ........",
"...............                                       ..........",
"...............                                      ...........",
"................                                   .............",
".................                                 ..............",
"..................                              ................",
"...................                            .................",
"....................                         ...................",
"....................                       .....................",
"......................                    ......................",
"........................                 .......................",
"........................                 .......................",
".......................                  .......................",
".......................                  .......................",
".......................                   ......................",
"......................                    ......................",
"......................         .          ......................",
".....................          ...         .....................",
".....................         .....        .....................",
"....................         .......       .....................",
"...................        ..........       ....................",
"...................       ............      ....................",
"..................       .............       ...................",
"..................      ...............       ..................",
"................       .................      ..................",
"................     ....................      .................",
"...............     .....................      .................",
"..............     ........................     ................",
"..............    ..........................    ................",
".............    .............................  ................",
".............   ................................................",
"................................................................",
"................................................................",
"................................................................",
"................................................................",
"................................................................",
"................................................................",
"................................................................",
"................................................................",
"................................................................",
"................................................................"
};
