/* XPM */
static char *fourmilier[] = {
/* columns rows colors chars-per-pixel */
"64 64 171 2 ",
"   c #3F261E",
".  c #3E2720",
"X  c #452723",
"o  c #432A24",
"O  c #442E28",
"+  c #4B332F",
"@  c #503C37",
"#  c #523D3B",
"$  c #57413E",
"%  c #554643",
"&  c #5A4642",
"*  c #5D4944",
"=  c #5E4D4A",
"-  c #5E514D",
";  c #614B46",
":  c #624D4B",
">  c #64524D",
",  c #645552",
"<  c #6B5454",
"1  c #675A56",
"2  c #6B5A56",
"3  c #6C5C5A",
"4  c #775F5F",
"5  c #6E605D",
"6  c #71625F",
"7  c #6E6260",
"8  c #736562",
"9  c #796761",
"0  c #766966",
"q  c #7A6966",
"w  c #776C69",
"e  c #7B6D6A",
"r  c #7E716D",
"t  c #7E7471",
"y  c #806E6D",
"u  c #81726E",
"i  c #837572",
"p  c #847A75",
"a  c #8A7B76",
"s  c #867D79",
"d  c #8A7D7A",
"f  c #907E7D",
"g  c #87807B",
"h  c #8B827D",
"j  c #90837F",
"k  c #8D8681",
"l  c #8F8984",
"z  c #8F8C8B",
"x  c #918683",
"c  c #928B85",
"v  c #958E8A",
"b  c #9A8D8B",
"n  c #96918C",
"m  c #9A928D",
"M  c #978F90",
"N  c #988E90",
"B  c #969595",
"V  c #9A9493",
"C  c #9D9994",
"Z  c #9E9699",
"A  c #9D9C9C",
"S  c #A19592",
"D  c #A39B96",
"F  c #A19D9C",
"G  c #A99B99",
"H  c #9FA09F",
"J  c #A3A29D",
"K  c #ACA39D",
"L  c #A19FA0",
"P  c #A4A3A3",
"I  c #ABA5A2",
"U  c #ABA9A5",
"Y  c #ABAAAA",
"T  c #B1A6A3",
"R  c #B5ABA6",
"E  c #B6AEAC",
"W  c #B9ADA9",
"Q  c #B9B2A6",
"!  c #B4B1AE",
"~  c #BBB3AD",
"^  c #B6B6B6",
"/  c #B4B4B3",
"(  c #B9B3B5",
")  c #BCB5B2",
"_  c #BDB9B5",
"`  c gray73",
"'  c #BDBBBB",
"]  c #C2B7B2",
"[  c #C2BAB5",
"{  c #C4BDB9",
"}  c #C9BFBA",
"|  c #C5C0BC",
" . c #CAC3BD",
".. c #C4C0C2",
"X. c #C7C6C5",
"o. c #C6C6C6",
"O. c #C7C5C4",
"+. c #CCC6C2",
"@. c #CCCAC7",
"#. c gray79",
"$. c #CACACA",
"%. c #CECECE",
"&. c #CCCBCB",
"*. c #D2CFCA",
"=. c #D2CDCC",
"-. c #D3D2CE",
";. c #D8D4CF",
":. c #D6CED1",
">. c #D3CFD0",
",. c #D0D0D0",
"<. c #D5D5D5",
"1. c #D7D7D7",
"2. c #D5D4D2",
"3. c #DAD6D3",
"4. c #DADAD5",
"5. c gray85",
"6. c #D8D8D8",
"7. c #DADADA",
"8. c gray86",
"9. c #DDDDDD",
"0. c #DDDEDD",
"q. c #DCDBD9",
"w. c #E2DDD7",
"e. c #E1DFDD",
"r. c #E1E0DF",
"t. c #E3E1DE",
"y. c #E8E3DF",
"u. c gray88",
"i. c #E1E1E1",
"p. c #E5E4E3",
"a. c #E7E7E3",
"s. c #E5E5E5",
"d. c #E6E6E6",
"f. c #E4E3E2",
"g. c #E9E5E0",
"h. c #EAEAE5",
"j. c #EBEAE6",
"k. c #E9E9E9",
"l. c gray92",
"z. c #EEECEB",
"x. c #EAEEEE",
"c. c #EEECED",
"v. c #EEEEEE",
"b. c #EFEFEF",
"n. c #ECECEC",
"m. c #ECECEB",
"M. c #F0EDEE",
"N. c #F0EFEB",
"B. c #F2F1ED",
"V. c #F1F1F1",
"C. c #F3F3F3",
"Z. c #F6F5F5",
"A. c #F7F7F7",
"S. c #F4F4F4",
"D. c #F4F4F3",
"F. c #F9F7F3",
"G. c #F7F9F4",
"H. c #F9F9F7",
"J. c #F8F8F8",
"K. c #F9F9F9",
"L. c #FAF9F8",
"P. c gray98",
"I. c #FBFBFB",
"U. c #FDFBFD",
"Y. c gray99",
"T. c #FDFDFD",
"R. c #FEFFFD",
"E. c #FDFFFF",
"W. c #FEFEFE",
"Q. c white",
"!. c #FFFFFF",
/* pixels */
"Q.Q.Q.Q.Q.Q.Q.Q.Q.Q.Q.Q.Q.Q.Q.Q.Q.Q.Q.Q.Q.Q.Q.Q.Q.Q.Q.Q.Q.Q.Q.Q.Q.Q.Q.Q.Q.Q.Q.Q.Q.Q.Q.Q.Q.Q.Q.Q.Q.Q.Q.Q.Q.Q.Q.Q.Q.Q.Q.Q.Q.Q.Q.Q.",
"Q.Q.Q.Q.Q.Q.Q.Q.Q.Q.Q.Q.Q.Q.Q.Q.Q.Q.Q.Q.Q.Q.Q.Q.Q.Q.Q.Q.Q.Q.Q.Q.Q.Q.Q.Q.Q.Q.Q.Q.Q.Q.Q.Q.Q.Q.Q.Q.Q.Q.Q.Q.Q.Q.Q.Q.Q.Q.Q.Q.Q.Q.Q.Q.",
"Q.Q.Q.Q.Q.Q.Q.Q.Q.Q.Q.Q.Q.Q.Q.Q.Q.Q.Q.Q.Q.Q.Q.Q.Q.Q.Q.Q.Q.Q.Q.Q.Q.Q.Q.Q.Q.Q.Q.Q.Q.Q.Q.Q.Q.Q.Q.Q.Q.Q.Q.Q.Q.Q.Q.Q.Q.Q.Q.Q.Q.Q.Q.Q.",
"Q.Q.Q.Q.Q.Q.Q.Q.Q.Q.Q.Q.Q.Q.Q.Q.Q.Q.Q.Q.Q.Q.Q.Q.Q.Q.Q.Q.Q.Q.Q.Q.Q.Q.Q.Q.Q.Q.Q.Q.Q.Q.Q.Q.Q.Q.Q.Q.Q.Q.Q.Q.Q.Q.Q.Q.Q.Q.Q.Q.Q.Q.Q.Q.",
"Q.Q.Q.Q.Q.Q.Q.Q.Q.Q.Q.Q.Q.Q.Q.Q.Q.Q.Q.Q.Q.Q.Q.Q.Q.Q.Q.Q.Q.Q.Q.Q.Q.Q.Q.Q.Q.Q.Q.Q.Q.Q.Q.Q.Q.Q.Q.Q.Q.Q.Q.Q.Q.Q.Q.Q.Q.Q.Q.Q.Q.Q.Q.Q.",
"Q.Q.Q.Q.Q.Q.Q.Q.Q.Q.Q.Q.Q.Q.Q.Q.Q.Q.Q.Q.Q.Q.Q.Q.Q.Q.Q.Q.Q.Q.Q.Q.Q.Q.Q.Q.Q.Q.Q.Q.Q.Q.Q.Q.Q.Q.Q.Q.Q.Q.Q.Q.Q.Q.Q.Q.Q.Q.Q.Q.Q.Q.Q.Q.",
"Q.Q.Q.Q.Q.Q.Q.Q.Q.Q.Q.Q.Q.Q.Q.Q.Q.Q.Q.Q.Q.Q.Q.Q.Q.Q.Q.Q.Q.Q.Q.Q.Q.Q.Q.Q.Q.Q.Q.Q.Q.Q.Q.Q.Q.Q.Q.Q.Q.Q.Q.Q.Q.Q.Q.Q.Q.Q.Q.Q.Q.Q.Q.Q.",
"Q.Q.Q.Q.Q.Q.Q.Q.Q.Q.Q.Q.Q.Q.Q.Q.Q.Q.Q.Q.Q.Q.Q.Q.Q.Q.Q.Q.Q.Q.Q.Q.Q.Q.Q.Q.Q.Q.Q.Q.Q.Q.Q.Q.Q.Q.Q.Q.Q.Q.Q.Q.Q.Q.Q.Q.Q.Q.Q.Q.Q.Q.Q.Q.",
"Q.Q.Q.Q.Q.Q.Q.Q.Q.Q.Q.Q.Q.Q.Q.Q.Q.Q.Q.Q.Q.Q.Q.Q.Q.Q.Q.Q.Q.Q.Q.Q.Q.Q.Q.Q.Q.Q.Q.Q.Q.Q.Q.Q.Q.Q.Q.Q.Q.Q.Q.Q.Q.Q.Q.Q.Q.Q.Q.Q.Q.Q.Q.Q.",
"Q.Q.Q.Q.Q.Q.Q.Q.Q.Q.Q.Q.Q.Q.Q.Q.Q.Q.Q.Q.Q.Q.Q.Q.Q.Q.Q.Q.Q.Q.Q.Q.Q.Q.Q.Q.Q.Q.Q.Q.Q.Q.Q.Q.Q.Q.Q.Q.Q.Q.Q.Q.Q.Q.Q.Q.Q.Q.Q.Q.Q.Q.Q.Q.",
"Q.Q.Q.Q.Q.Q.Q.Q.Q.Q.Q.Q.Q.Q.Q.Q.Q.Q.Q.Q.Q.Q.Q.Q.Q.Q.Q.Q.Q.Q.Q.Q.Q.Q.Q.Q.Q.Q.Q.Q.Q.Q.Q.Q.Q.Q.Q.Q.Q.Q.Q.Q.Q.Q.Q.Q.Q.Q.Q.Q.Q.Q.Q.Q.",
"Q.Q.Q.Q.Q.Q.Q.Q.Q.Q.Q.Q.Q.Q.Q.Q.Q.Q.Q.Q.Q.Q.Q.Q.Q.Q.Q.Q.Q.Q.Q.Q.Q.Q.Q.Q.Q.Q.Q.Q.Q.Q.Q.Q.Q.Q.Q.Q.Q.Q.Q.Q.Q.Q.Q.Q.Q.Q.Q.Q.Q.Q.Q.Q.",
"Q.Q.Q.Q.Q.Q.Q.Q.Q.Q.Q.Q.Q.Q.Q.Q.Q.Q.Q.Q.Q.Q.Q.Q.Q.Q.Q.Q.Q.Q.Q.Q.Q.Q.Q.Q.Q.Q.Q.Q.Q.Q.Q.Q.Q.Q.Q.Q.Q.Q.Q.Q.Q.Q.Q.Q.Q.Q.Q.Q.Q.Q.Q.Q.",
"Q.Q.Q.Q.Q.Q.Q.Q.Q.Q.Q.Q.Q.Q.Q.Q.Q.Q.Q.Q.Q.Q.Q.Q.Q.Q.Q.Q.Q.Q.Q.Q.Q.Q.Q.Q.Q.Q.Q.Q.Q.Q.Q.Q.Q.Q.Q.Q.Q.Q.Q.Q.Q.Q.Q.Q.Q.Q.Q.Q.Q.Q.Q.Q.",
"Q.Q.Q.Q.Q.Q.Q.Q.Q.Q.Q.Q.Q.Q.Q.Q.Q.Q.Q.Q.Q.Q.Q.Q.Q.Q.Q.Q.Q.Q.Q.Q.Q.Q.Q.Q.Q.Q.Q.Q.Q.Q.Q.Q.Q.Q.Q.Q.Q.Q.Q.Q.Q.Q.Q.Q.Q.Q.Q.Q.Q.Q.Q.Q.",
"Q.Q.Q.Q.Q.Q.Q.Q.Q.Q.Q.Q.Q.Q.Q.Q.Q.Q.Q.Q.Q.Q.Q.Q.Q.Q.Q.Q.Q.Q.Q.Q.Q.Q.Q.Q.Q.Q.Q.Q.Q.Q.Q.Q.Q.Q.Q.Q.Q.Q.Q.Q.Q.Q.Q.Q.Q.Q.Q.Q.Q.Q.Q.Q.",
"Q.Q.Q.Q.Q.Q.Q.Q.Q.Q.Q.Q.Q.Q.Q.Q.Q.Q.Q.Q.Q.Q.Q.Q.Q.Q.Q.Q.Q.Q.Q.Q.Q.Q.Q.Q.Q.Q.Q.Q.Q.Q.Q.Q.Q.Q.Q.Q.Q.Q.Q.Q.Q.Q.Q.Q.Q.Q.Q.Q.Q.Q.Q.Q.",
"Q.Q.Q.Q.Q.Q.Q.Q.Q.Q.Q.Q.Q.Q.Q.Q.Q.Q.Q.Q.Q.Q.Q.Q.Q.Q.Q.Q.Q.Q.Q.Q.Q.Q.Q.Q.Q.Q.Q.Q.Q.Q.Q.Q.Q.Q.Q.Q.Q.Q.Q.Q.Q.Q.Q.Q.Q.Q.Q.Q.Q.Q.Q.Q.",
"Q.Q.Q.Q.Q.Q.Q.Q.Q.Q.Q.Q.Q.Q.Q.Q.Q.Q.Q.Q.Q.Q.Q.Q.Q.Q.Q.Q.Q.Q.Q.Q.Q.Q.Q.Q.Q.Q.Q.Q.Q.Q.Q.Q.Q.Q.Q.Q.Q.Q.Q.Q.Q.Q.Q.Q.Q.Q.Q.Q.Q.Q.Q.Q.",
"Q.Q.Q.Q.Q.Q.Q.Q.Q.Q.Q.Q.Q.Q.Q.Q.Q.Q.Q.Q.Q.Q.Q.Q.Q.Q.Q.Q.Q.Q.L.L.L.L.L.L.Q.Q.Q.Q.Q.Q.Q.Q.Q.Q.Q.Q.Q.Q.Q.Q.Q.Q.Q.Q.Q.Q.Q.Q.Q.Q.Q.Q.",
"Q.Q.Q.Q.Q.Q.Q.Q.Q.Q.Q.Q.Q.Q.Q.Q.Q.Q.Q.Q.Q.Q.Q.Q.L.L.C.k.s.6.%.X.` X.1.9.u.s.v.A.A.Q.Q.Q.Q.Q.Q.Q.Q.Q.Q.Q.Q.Q.Q.Q.Q.Q.Q.Q.Q.Q.Q.Q.",
"Q.Q.Q.Q.Q.Q.Q.Q.Q.Q.Q.Q.Q.Q.Q.Q.Q.Q.Q.Q.Q.L.C.k.6.' P P P A A A Z A P A P P A Y $.s.C.L.Q.Q.Q.Q.Q.Q.Q.Q.Q.Q.Q.Q.Q.Q.Q.Q.Q.Q.Q.Q.",
"Q.Q.Q.Q.Q.Q.Q.Q.Q.Q.Q.Q.Q.Q.Q.Q.Q.Q.Q.A.k.6.^ A A P P P P P P P P A Z A A P P P P P ^ 6.v.L.Q.Q.Q.Q.Q.Q.Q.Q.Q.Q.Q.Q.Q.Q.Q.Q.Q.Q.",
"Q.Q.Q.Q.Q.Q.Q.Q.Q.Q.Q.Q.Q.Q.Q.Q.Q.L.r.X.P F J P P P P J H P H P P A A P P P P P P P P L Y 2.v.Q.Q.Q.Q.Q.Q.Q.Q.Q.Q.Q.Q.Q.Q.Q.Q.Q.",
"Q.Q.Q.Q.Q.Q.Q.Q.Q.Q.Q.Q.Q.Q.Q.U.M.*.m m C C D C C C D C F A F P A V Z A L F Z V F Z A Z P P ^ 6.6.6.9.s.v.v.C.L.Q.Q.Q.Q.Q.Q.Q.Q.",
"Q.Q.Q.Q.Q.Q.Q.Q.Q.Q.Q.Q.Q.Q.z.:.E v n v c x k h h h a r d b x v V F Z B B V M V Z B z l V C Z A A F P Y ^ ^ ^ $.1.u.u.v.A.Q.Q.Q.",
"Q.Q.Q.Q.Q.Q.Q.Q.Q.Q.Q.Q.Q.h.T t r a a h c n c d i 0 5 u g a < 1 0 k V Z A Z v v v m v v k k k l V Z F P A Z B B B P P ( O.1.9.x.",
"Q.Q.Q.Q.Q.Q.Q.Q.Q.Q.Q.Q.a.U y i r 8 d m m n x t w i d g r 2 9 8 3 e k V P F V v l v m D m m v g k v B A P P U Y P P P A A A P ^ ",
"Q.Q.Q.Q.Q.Q.Q.Q.Q.Q.Q.a.F r a i r i m m v n D D m i 6 & * r i r r 5 w l V n C A Z v v m v n n g v c k k l m C P P P P P Y P B B ",
"Q.Q.Q.Q.Q.Q.Q.Q.Q.Q.v.U 4 y r 1 0 p k s m K v i q $ X ; q d r 0 3 - 8 p r r x V V A F v v v x p s k k k h x n v B Z P A F A A A ",
"Q.Q.Q.Q.Q.Q.Q.Q.Q.D._ 8 < , , 8 h h g v D r = o X + 3 i u e 1 : ; - 8 i d s p p t k C v c c n k 0 k C C n m C M V Z A V v n v n ",
"Q.Q.Q.Q.Q.Q.Q.Q.I.-.s , ; , i k h k K d , O   o @ 7 r e 0 3 5 > ; , e a a s s i a e r k m m k s , 0 c C v c n V Z B Z V v v h t ",
"Q.Q.Q.Q.Q.Q.Q.Q.u.A w $ ; r k i h J t # . o o % e d d e 0 q 3 > , 8 a s s p p i i e 8 r n V V t 1 2 t k k k c v m v n v k c h w ",
"Q.Q.Q.Q.Q.Q.Q.v.^ J h : 2 x k x h - + o o O @ q a 0 0 r 8 q 5 8 8 q j h h s p a a u 3 e l V N a 9 , e h g t k m k k m c g k c t ",
"Q.Q.Q.Q.Q.Q.L.6.A Y B t s C m y = & * = 3 9 9 u i e 8 8 8 3 - 0 i d d h k h d d a 8 3 2 p V M k d 8 0 d i r i v v k c x r r h a ",
"Q.Q.Q.Q.Q.Q.k.Y / / Y D D v 7 k { 6.f.y.{ K R ] T m e , 0 e r a a i i s p p s i e < : : s M V C K D 8 e e 8 8 s c s s d q 8 p a ",
"Q.Q.Q.Q.Q.L.6.! ) ! Y m v F =.A.Y.Q.Q.B. .R [ +.+.} E m h ^ $.E k q e e q r e q 1 1 2 0 v B A J K { F 0 e 0 1 0 8 r e q e 8 e e ",
"Q.Q.Q.Q.Q.v.^ _ ~ U P ! 4.A.Q.Q.Q.Q.Q.B.} W {  . .) R ~ I k.Q.F.3.I v r q 9 3 5 , , 0 s n C P n x 3.j.E d p p e 3 q e q 0 q e e ",
"Q.Q.Q.Q.Y.0.! _ Y U $.D.Q.Q.Q.Q.Q.Q.Q.N.{ T [ +. .] R T  .H.Q.Q.Y.J.r.) S i 6 : : 6 d k m C C t t O.Q.z.1.2._ v a 9 5 q 8 3 0 u ",
"Q.Q.Q.Q.A.{ ) U P 2.A.Q.Q.Q.Q.Q.Q.Q.Q.N.} W {  .| [ W K *.L.Q.Q.Q.Q.Q.N.4.E w 3 < 0 h v m n d 9 8 _ I.Q.Q.Q.D.0.+.V p , 0 3 0 r ",
"Q.Q.Q.Q.s.U U J 2.L.Q.Q.Q.Q.Q.Q.Q.Q.Q.j.[ W [  .| { ] K a.Q.Q.Q.Q.Q.Q.Q.I.s.P q 0 t c B C c & ; q ~ B.Q.Q.Q.Q.Q.L.e.3.C x h e e ",
"Q.Q.Q.L.#.J I 6.I.Q.Q.Q.Q.Q.Q.Q.Q.Q.Q.a.K ~ [ +.| { ~ ~ v.Q.Q.Q.Q.Q.Q.Q.Q.E.>.b e s v P F k # & 2 G a.Q.Q.Q.Q.Q.Q.Q.Q.t.2.-.I h ",
"Q.Q.Q.B.V F 9.Q.Q.Q.Q.Q.Q.Q.Q.Q.Q.Q.Q.a.h K [  . .} ] @.A.Q.Q.Q.Q.Q.Q.Q.Q.Q.C.( e s v P P K i : 0 m 0.Q.Q.Q.Q.Q.Q.Q.Q.Q.Y.H.a.&.",
"Q.Q.Q.r.k | Q.Q.Q.Q.Q.Q.Q.Q.Q.Q.Q.Q.Q.k.D R ) [ ~ S T 0.L.Q.Q.Q.Q.Q.Q.Q.Q.Q.Q.@.h d v J U 4.+.3 h d %.Q.Q.Q.Q.Q.Q.Q.Q.Q.Q.Q.Q.L.",
"Q.Q.Q.@.C v.Q.Q.Q.Q.Q.Q.Q.Q.Q.Q.Q.E.L.r.[ [ R D i : K ;.F.D.h.Q.Q.Q.Q.Q.Q.Q.Q.r.v s c A / D.f.w r s 4.Q.Q.Q.Q.Q.Q.Q.Q.Q.Q.Q.Q.Q.",
"Q.Q.Q._ U Y.Q.Q.Q.Q.Q.Q.Q.Q.Q.Q.Q.S.O.T ) K K +.D 9 Q  .w.{ E L.Q.Q.Q.Q.Q.Q.Q.D.I t k F ^ L.u.8 = D C.Q.Q.Q.Q.Q.Q.Q.Q.Q.Q.Q.Q.Q.",
"Q.Q.Q.1.r.Q.Q.Q.Q.Q.Q.Q.Q.Q.Q.Q.Q.z.G q a i ~ F.m.{ ~ [ D f d L.Q.Q.Q.Q.Q.Q.Y.j.D i c A $.A.%.> h 0.Q.Q.Q.Q.Q.Q.Q.Q.Q.Q.Q.Q.Q.Q.",
"Q.Q.Q.L.Q.Q.Q.Q.Q.Q.Q.Q.Q.Q.Q.Q.Q.G.g.0.0.e.M.Q.Q.B.*.W D b [ I.Q.Q.Q.Q.Q.v.X.F 8 2 l C k.Q.b.6.h.I.Q.Q.Q.Q.Q.Q.Q.Q.Q.Q.Q.Q.Q.Q.",
"Q.Q.Q.Q.Q.Q.Q.Q.Q.Q.Q.Q.Q.Q.Q.Q.Q.Q.Q.Q.Q.Q.Q.Q.Q.Q.H.h.u.f.D.Q.Q.Q.Q.Q.Q.u.F w 2 , p =.L.Q.Q.Q.Q.Q.Q.Q.Q.Q.Q.Q.Q.Q.Q.Q.Q.Q.Q.Q.",
"Q.Q.Q.Q.Q.Q.Q.Q.Q.Q.Q.Q.Q.Q.Q.Q.Q.Q.Q.Q.Q.Q.Q.Q.Q.Q.Q.Q.Q.Q.Q.Q.Q.Q.Q.Q.Q.L.C.M.N.N.B.L.Q.Q.Q.Q.Q.Q.Q.Q.Q.Q.Q.Q.Q.Q.Q.Q.Q.Q.Q.Q.",
"Q.Q.Q.Q.Q.Q.Q.Q.Q.Q.Q.Q.Q.Q.Q.Q.Q.Q.Q.Q.Q.Q.Q.Q.Q.Q.Q.Q.Q.Q.Q.Q.Q.Q.Q.Q.Q.Q.Q.Q.Q.Q.Q.Q.Q.Q.Q.Q.Q.Q.Q.Q.Q.Q.Q.Q.Q.Q.Q.Q.Q.Q.Q.Q.",
"Q.Q.Q.Q.Q.Q.Q.Q.Q.Q.Q.Q.Q.Q.Q.Q.Q.Q.Q.Q.Q.Q.Q.Q.Q.Q.Q.Q.Q.Q.Q.Q.Q.Q.Q.Q.Q.Q.Q.Q.Q.Q.Q.Q.Q.Q.Q.Q.Q.Q.Q.Q.Q.Q.Q.Q.Q.Q.Q.Q.Q.Q.Q.Q.",
"Q.Q.Q.Q.Q.Q.Q.Q.Q.Q.Q.Q.Q.Q.Q.Q.Q.Q.Q.Q.Q.Q.Q.Q.Q.Q.Q.Q.Q.Q.Q.Q.Q.Q.Q.Q.Q.Q.Q.Q.Q.Q.Q.Q.Q.Q.Q.Q.Q.Q.Q.Q.Q.Q.Q.Q.Q.Q.Q.Q.Q.Q.Q.Q.",
"Q.Q.Q.Q.Q.Q.Q.Q.Q.Q.Q.Q.Q.Q.Q.Q.Q.Q.Q.Q.Q.Q.Q.Q.Q.Q.Q.Q.Q.Q.Q.Q.Q.Q.Q.Q.Q.Q.Q.Q.Q.Q.Q.Q.Q.Q.Q.Q.Q.Q.Q.Q.Q.Q.Q.Q.Q.Q.Q.Q.Q.Q.Q.Q.",
"Q.Q.Q.Q.Q.Q.Q.Q.Q.Q.Q.Q.Q.Q.Q.Q.Q.Q.Q.Q.Q.Q.Q.Q.Q.Q.Q.Q.Q.Q.Q.Q.Q.Q.Q.Q.Q.Q.Q.Q.Q.Q.Q.Q.Q.Q.Q.Q.Q.Q.Q.Q.Q.Q.Q.Q.Q.Q.Q.Q.Q.Q.Q.Q.",
"Q.Q.Q.Q.Q.Q.Q.Q.Q.Q.Q.Q.Q.Q.Q.Q.Q.Q.Q.Q.Q.Q.Q.Q.Q.Q.Q.Q.Q.Q.Q.Q.Q.Q.Q.Q.Q.Q.Q.Q.Q.Q.Q.Q.Q.Q.Q.Q.Q.Q.Q.Q.Q.Q.Q.Q.Q.Q.Q.Q.Q.Q.Q.Q.",
"Q.Q.Q.Q.Q.Q.Q.Q.Q.Q.Q.Q.Q.Q.Q.Q.Q.Q.Q.Q.Q.Q.Q.Q.Q.Q.Q.Q.Q.Q.Q.Q.Q.Q.Q.Q.Q.Q.Q.Q.Q.Q.Q.Q.Q.Q.Q.Q.Q.Q.Q.Q.Q.Q.Q.Q.Q.Q.Q.Q.Q.Q.Q.Q.",
"Q.Q.Q.Q.Q.Q.Q.Q.Q.Q.Q.Q.Q.Q.Q.Q.Q.Q.Q.Q.Q.Q.Q.Q.Q.Q.Q.Q.Q.Q.Q.Q.Q.Q.Q.Q.Q.Q.Q.Q.Q.Q.Q.Q.Q.Q.Q.Q.Q.Q.Q.Q.Q.Q.Q.Q.Q.Q.Q.Q.Q.Q.Q.Q.",
"Q.Q.Q.Q.Q.Q.Q.Q.Q.Q.Q.Q.Q.Q.Q.Q.Q.Q.Q.Q.Q.Q.Q.Q.Q.Q.Q.Q.Q.Q.Q.Q.Q.Q.Q.Q.Q.Q.Q.Q.Q.Q.Q.Q.Q.Q.Q.Q.Q.Q.Q.Q.Q.Q.Q.Q.Q.Q.Q.Q.Q.Q.Q.Q.",
"Q.Q.Q.Q.Q.Q.Q.Q.Q.Q.Q.Q.Q.Q.Q.Q.Q.Q.Q.Q.Q.Q.Q.Q.Q.Q.Q.Q.Q.Q.Q.Q.Q.Q.Q.Q.Q.Q.Q.Q.Q.Q.Q.Q.Q.Q.Q.Q.Q.Q.Q.Q.Q.Q.Q.Q.Q.Q.Q.Q.Q.Q.Q.Q.",
"Q.Q.Q.Q.Q.Q.Q.Q.Q.Q.Q.Q.Q.Q.Q.Q.Q.Q.Q.Q.Q.Q.Q.Q.Q.Q.Q.Q.Q.Q.Q.Q.Q.Q.Q.Q.Q.Q.Q.Q.Q.Q.Q.Q.Q.Q.Q.Q.Q.Q.Q.Q.Q.Q.Q.Q.Q.Q.Q.Q.Q.Q.Q.Q.",
"Q.Q.Q.Q.Q.Q.Q.Q.Q.Q.Q.Q.Q.Q.Q.Q.Q.Q.Q.Q.Q.Q.Q.Q.Q.Q.Q.Q.Q.Q.Q.Q.Q.Q.Q.Q.Q.Q.Q.Q.Q.Q.Q.Q.Q.Q.Q.Q.Q.Q.Q.Q.Q.Q.Q.Q.Q.Q.Q.Q.Q.Q.Q.Q.",
"Q.Q.Q.Q.Q.Q.Q.Q.Q.Q.Q.Q.Q.Q.Q.Q.Q.Q.Q.Q.Q.Q.Q.Q.Q.Q.Q.Q.Q.Q.Q.Q.Q.Q.Q.Q.Q.Q.Q.Q.Q.Q.Q.Q.Q.Q.Q.Q.Q.Q.Q.Q.Q.Q.Q.Q.Q.Q.Q.Q.Q.Q.Q.Q.",
"Q.Q.Q.Q.Q.Q.Q.Q.Q.Q.Q.Q.Q.Q.Q.Q.Q.Q.Q.Q.Q.Q.Q.Q.Q.Q.Q.Q.Q.Q.Q.Q.Q.Q.Q.Q.Q.Q.Q.Q.Q.Q.Q.Q.Q.Q.Q.Q.Q.Q.Q.Q.Q.Q.Q.Q.Q.Q.Q.Q.Q.Q.Q.Q."
};
