/* XPM */
static char *fourmi[] = {
/* columns rows colors chars-per-pixel */
"64 64 249 2 ",
"   c #2A1209",
".  c #37170A",
"X  c #351B12",
"o  c #3C2518",
"O  c #4A1A0B",
"+  c #571906",
"@  c #701A06",
"#  c #54220D",
"$  c #48291B",
"%  c #562B18",
"&  c #5B311E",
"*  c #76280D",
"=  c #672C18",
"-  c #742810",
";  c #6C341C",
":  c #76351A",
">  c #472F23",
",  c #4C3425",
"<  c #4A372A",
"1  c #543324",
"2  c #533A2C",
"3  c #593929",
"4  c #4F3E31",
"5  c #543E32",
"6  c #673C27",
"7  c #753B23",
"8  c #5F422E",
"9  c #4E4337",
"0  c #544335",
"q  c #574437",
"w  c #5B4639",
"e  c #5B4B3D",
"r  c #64432F",
"t  c #6C432C",
"y  c #794225",
"u  c #7C512F",
"i  c #634534",
"p  c #6A4A35",
"a  c #624B3D",
"s  c #744934",
"d  c #6B523D",
"f  c #7B563C",
"g  c #5D4D40",
"h  c #5E5143",
"j  c #644F42",
"k  c #645344",
"l  c #6A5545",
"z  c #6B5947",
"x  c #655649",
"c  c #695649",
"v  c #655A4B",
"b  c #6A5B4C",
"n  c #7C5946",
"m  c #7A5C45",
"M  c #725D4C",
"N  c #665D52",
"B  c #6D5E51",
"V  c #705D51",
"C  c #76624C",
"Z  c #6E6253",
"A  c #6D655A",
"S  c #736355",
"D  c #7A6555",
"F  c #726857",
"G  c #7B6857",
"H  c #756659",
"J  c #756A5B",
"K  c #7B6B5D",
"L  c #6E6A61",
"P  c #746E63",
"I  c #7D6E61",
"U  c #7D7262",
"Y  c #7B746A",
"T  c #862A0D",
"R  c #972B03",
"E  c #8D340D",
"W  c #983609",
"Q  c #883815",
"!  c #993B15",
"~  c #A33C02",
"^  c #833E24",
"/  c #943E27",
"(  c #C13D02",
")  c #9B410C",
"_  c #974419",
"`  c #A54817",
"'  c #AD4F12",
"]  c #864527",
"[  c #944D2D",
"{  c #98552D",
"}  c #895439",
"|  c #975836",
" . c #A44D25",
".. c #AA5727",
"X. c #B45B27",
"o. c #A85B34",
"O. c #96623B",
"+. c #B4662C",
"@. c #B56A2A",
"#. c #A9663A",
"$. c #B56937",
"%. c #BB713C",
"&. c #C75618",
"*. c #C76019",
"=. c #CA6E33",
"-. c #835E45",
";. c #905541",
":. c #89634A",
">. c #986847",
",. c #8A6852",
"<. c #836D5C",
"1. c #986D57",
"2. c #83715D",
"3. c #8D725B",
"4. c #94755C",
"5. c #98775B",
"6. c #A76B46",
"7. c #AA7644",
"8. c #BA7646",
"9. c #A77655",
"0. c #B37350",
"q. c #837364",
"w. c #8A7563",
"e. c #8C7A65",
"r. c #857669",
"t. c #887768",
"y. c #8A7769",
"u. c #857A6A",
"i. c #8B7C6C",
"p. c #967863",
"a. c #927D6B",
"s. c #817B71",
"d. c #8C7E71",
"f. c #A47D64",
"g. c #C87B43",
"h. c #C47750",
"j. c #B78555",
"k. c #B1875A",
"l. c #8B816D",
"z. c #94826D",
"x. c #9D846D",
"c. c #8C8272",
"v. c #8C8578",
"b. c #938474",
"n. c #978875",
"m. c #958A7B",
"M. c #9B8C7C",
"N. c #9B907F",
"B. c #A7826A",
"V. c #B48967",
"C. c #B68F6C",
"Z. c #A48B76",
"A. c #A8927C",
"S. c #B7947B",
"D. c #CA864B",
"F. c #C88C59",
"G. c #D68E50",
"H. c #C8935B",
"J. c #D49558",
"K. c #E5954F",
"L. c #DFA55A",
"P. c #E3A85A",
"I. c #CA9B65",
"U. c #D99A69",
"Y. c #C69374",
"T. c #D79673",
"R. c #EC9C6D",
"E. c #CCA868",
"W. c #DAA669",
"Q. c #DDB167",
"!. c #D5A876",
"~. c #D9B879",
"^. c #E8AC6A",
"/. c #FBA76C",
"(. c #FBB56C",
"). c #E9A874",
"_. c #F9AB76",
"`. c #E3B87B",
"'. c #FEB974",
"]. c #DDC679",
"[. c #EEC979",
"{. c #FDC576",
"}. c #FECC7B",
"|. c #FAD678",
" X c #FED47C",
".X c #9D9283",
"XX c #A39282",
"oX c #A89987",
"OX c #AC9A88",
"+X c #AC9D8D",
"@X c #B3A594",
"#X c #D5A882",
"$X c #DAB588",
"%X c #D3B091",
"&X c #EAB586",
"*X c #E5B888",
"=X c #E7BA96",
"-X c #DDC284",
";X c #E6C988",
":X c #FECC83",
">X c #EDD488",
",X c #FED483",
"<X c #FEDB83",
"1X c #F8D889",
"2X c #FEDD8B",
"3X c #E9C896",
"4X c #F3C99D",
"5X c #ECD99A",
"6X c #F7DC95",
"7X c #FBE386",
"8X c #FDE48C",
"9X c #FCEB8E",
"0X c #FDE592",
"qX c #FCEB94",
"wX c #FEE59A",
"eX c #F5EA99",
"rX c #FDEC9C",
"tX c #FBF196",
"yX c #FBF19D",
"uX c #C8C0B3",
"iX c #F1CDA7",
"pX c #ECD0AB",
"aX c #F2D9A8",
"sX c #F4DCB7",
"dX c #F5E7A6",
"fX c #FDEDA3",
"gX c #FDEFAA",
"hX c #FCF2A4",
"jX c #FDF2AC",
"kX c #F7E8B9",
"lX c #FDF3B3",
"zX c #FBF8B5",
"xX c #FDF6BB",
"cX c #FDF9BB",
"vX c #F6DDC3",
"bX c #F7E8C7",
"nX c #FDF6C2",
"mX c #FDFBC4",
"MX c #F9F4CB",
"NX c #FDFDCC",
"BX c #F8EAD5",
"VX c #FDFDD4",
"CX c #FAF5D9",
"ZX c #FDFEDC",
"AX c #FAF5E5",
"SX c #FDFDE3",
"DX c #FCFDEA",
"FX c #FBFDF4",
"GX c #FCFEFA",
/* pixels */
"e.2.<.x.oXx.A.OXZ.S.S.S.S.Y.$X=X$X#X#X%X$X#X!.Y.Y.9.9.V.f.C.B.:.4.3.p.Z.Z.p.p.B.4.x.3.p.p.3.x.a.p.B.S.Y.#X=XpXBXAXFXGXGXFXFXFXFX",
"b K w.C C w.n.M.A.D a.M.e.n.Z.4.w.Z.Z.A.4.Z.x.-.p.w.w.<.Z.Z.w.w.e.2.a.i.z.A.z.z.2.l a.z.i.i.2.z.a.w.a.A.A.x.:.V.#X#X=XsXBXCXCXZX",
"d.m.t.XXb.M.i.A.XXq.+XM.q.t.b.a.q.<.Z.Z.e.z.XXl z.oXZ.OXZ.<.q.2.w.n.b.z.i.K q.w.b.q.i.<.M.n.2.n.q.M.t.n.i.a.D e.x.Z.x.:.B.C.C.S.",
"d.i.+X@Xn.+XU M.M.q.i.m.J b.M.q.q.t.OX+Xi.G b.D OXXXM.n.b.u.M K q.S 2.i.w.b.b.D v D S <.G b.q.b.q.XXXXt.XXXXz.<.w.t.w.z.K x q.z.",
"@XoXU J b.K c.M.r.b.c.+Xm.M.M.n.B m.XXi.M.b.XXD M.b.XX%XXXi.q.n.@Xb.u.t.K u.K t.K t.t.D <.<.J a.i.oXn.e M.n.q.b.oXb.q.t.m.i.q.M.",
"c.c.i.@Xm.oXx M.I .Xr.U r.b.u.t.q.c.i.D K n.+Xt.d.q.M.@Xn.I K K XXt.r.q.S t.b.K t.K B H K J c b.q.+X@Xb.i.t.n.M.M.i.M.J i..XB n.",
"oXH Z K b.m.h b.J K q.I n.q.q.K S S q.q.m.H S H U m.K M.i.r.r.i.m.I I H r.r.+Xq.H q.d.K I K i.r.q.XXM.S l 2.M.m.b.q.i.x u.K b.r.",
"v c.J m.J c.h I b.oXb.c.b.c.b.r.B K K r.S XXb.b i.J q.b.M.x b.i.I m.K H q.H q.I b D q.K S S n.i.q.M.t.j x v S J i.H q.r.S h i.b.",
"J oXU l.K S K q.J K U r.c.S .Xu.S b.r.K I i.g b S r.J q.b J K M.Z S K B K H x B r.q.K U K K b.u.K n.b e V H m.M.b.S i.+Xi.q.Z Z ",
"Y m.c.c.M.J B K S K i.i.K d.q.I b q.r.x b.r.i.B x c.r.S .Xq.r.i.i.m.i.K K r.x K K b t.k D K b.M.U D k k J v b K b.t.S b D i.b.S ",
"Y N v 9 B B q x U Z Z b J U K Z q.S b q.S q.b J 0 i.h r.i.J x k H 0 g B 5 q x k H x e x v K k e K u.i.k D w.t.d.i.r.K v n.J H B ",
"F Z v H h 9 q I Z Z h K q.v K x u.t.K r.e S b U < t.D k U x B k b 0 < e g c K b.x v k e e l c c u.u.v q w e K H I k k g B I H h ",
"J K b S i.g x U S K S 9 g e v K q.K K S H K S 4 < b q.x b S 0 k V w c k S x K G K D w q q a 2 l z M 0 5 j a a.q.w x S b q x x b ",
"b q x b b > b Z B I x q.B k q 4 b e x q < e S M 5 j i.e D c j k 2 2 a a q w $ 2 2 $ < w 2 2 l a l q 2 $ o 2 < 2 b c g k e x v x ",
"S k q a k , q M c k G D c a k 0 q l b 2 2 D l M z l a.l 8 , 1 , 2 2 2 o 3 1 3 1 3 1 i X , 5 d $ 1 5 $ o , d , > w k a w j 4 g x ",
"0 5 , i 8 1 n M j i a a M z a a a 2 5 5 a a m d p p <.$ 3 3 1 1 $ % 1 & 3 O O % % % 6 % % 6 3 $ % 6 r 6 p i $ 2 $ > , o , 2 2 q ",
"p 1 6 s s {  .:.f t 1 i 1 8 1 i $ i 8 $ i r 6 7 y ] ,.1 6 & s & = ; : ] : Q T * * - } - : : 7 : : : t t 7 6 t 3 $ $ , 2 , 5 a 2 ",
"[ [ ] | ..J.kX#.] 7 ; 7 ; 7 7 = = 6 6 % & :.; Q !.Y.o.,.y * W W W ~ W.$X=X$X=X=XiX$XH.!.D.F.G.D.g.@.' W E Q ] 7 7 t 6 s & % 1 1 ",
"=X3X3X3XiXbXSXG.D.H.D.8.$.$.+.+.+.+.X.' ) _ #.=.bXbX=.!.D.&XbXBXBXbXFXFXFXFXFXFXFXAX4XsXBXDXDXDXSXZXCXkXaX=X!.J.%.' _  .^ 7 ] 7 ",
"ZXSXSXSXSXSXSXAXSXSXAXAXAXAXCXAXAXAXAXCXbXvX=XsXFXAXAXFXAX=XiXFXAXpX&XsXFXDXFXFXCX3XG.sXDXAXSXSXSXSXSXDXDXSXDXSXSXbXsXaX*XU.D.$.",
"ZXZXZXZXSXZXSXZXSXSXSXSXSXSXSXSXSXSXDXDXDXDXAX^.DXFXFXFXDXFXBX&XU.` ..h.vXFXvX_.^.&XsXDXSXSXSXSXSXSXSXSXSXSXSXSXSXZXSXSXZXZXZXMX",
"ZXZXZXZXZXSXSXSXSXSXSXSXSXSXSXSXSXSXDXDXSXSXDXiXsXDXDXDXDXDXFX3XR _ @  .h.&XvXAXCXK.MXSXSXSXSXZXSXSXSXSXSXSXSXZXZXZXZXZXZXZXVXVX",
"ZXZXZXZXZXZXZXZXSXSXSXSXSXSXSXSXSXSXSXSXSXSXSXCX).AXDXDXDXDXCX*.! ] - } W ).DXSXAXK.CXSXSXSXZXZXZXSXSXSXSXSXSXZXZXZXZXZXZXVXVXVX",
"ZXZXZXZXZXZXZXZXZXSXSXSXZXZXZXZXZXZXSXSXSXSXSXDX&XsXSXSXSXDXpX' E f.5.f.Q &.CXSXCXR.CXZXZXZXZXZXZXZXZXZXZXZXZXZXZXZXZXZXVXVXVXNX",
"VXZXVXZXZXZXZXZXZXZXZXZXZXZXZXZXZXZXZXZXZXZXZXSXbXR.CXZXSXSX*X) | 9.Z.1.^ ~ sXZXMX).ZXZXZXSXZXZXZXZXZXZXZXZXZXZXZXZXVXVXVXVXVXNX",
"VXZXVXVXVXZXZXZXZXZXZXZXZXZXZXZXZXZXZXZXZXZXZXZXSX&XaXZXZXSX!.9.y } 1.} : o.`.SXkX&XZXZXZXZXZXZXZXZXZXZXZXZXVXVXVXVXVXVXVXNXNXNX",
"VXVXVXVXVXZXZXZXZXZXZXZXZXZXZXZXZXZXZXZXZXZXZXZXZXMXR.AXVXZXT.;.^ 7 : : ^ { W.ZXsX4XZXZXZXZXZXZXZXZXZXZXVXVXVXVXVXVXVXNXNXNXNXNX",
"VXVXVXVXVXVXZXZXZXZXZXZXZXZXZXZXZXZXZXZXZXZXZXZXVXVXpX).VXVX*XR : : = : Q ` *XSXiXkXVXZXZXZXZXZXZXZXZXZXVXVXVXVXVXVXVXNXNXNXNXNX",
"NXNXVXVXVXVXVXZXVXVXZXZXZXZXZXZXZXZXZXZXZXZXZXVXVXVXbX=.MXVXbX$.W * @ T ..J.MXbXK.VXVXVXVXVXVXVXVXVXVXZXVXVXVXVXVXNXVXNXNXNXNXNX",
"NXNXNXVXVXVXVXVXVXVXVXZXZXZXZXZXZXZXZXZXZXZXVXVXVXVXNX=.aXNXNXnXaX.._  .`.CXCXU.&XZXVXVXVXVXVXVXVXVXVXVXVXVXVXNXNXNXNXNXNXNXNXNX",
"NXNXNXNXNXVXVXVXVXVXVXVXZXZXVXVXVXZXZXZXZXZXVXVXVXVXVXW.G.NXNXMXg.6.8.7.F.bXW.&.kXVXVXVXVXVXVXVXVXVXVXVXNXNXNXNXNXNXNXNXNXNXNXNX",
"NXNXNXNXNXNXVXVXVXVXVXVXVXVXVXVXVXVXVXVXVXVXVXVXVXVXVXbX&.aXVX3X` 9.>.9.6.=.( 3XVXVXVXVXVXVXVXVXVXVXVXNXNXNXNXNXNXNXNXNXNXNXNXNX",
"NXNXNXNXNXNXNXNXVXVXVXVXVXVXVXVXVXVXVXVXVXVXVXVXVXVXVXVX=X=.MX@._ >.} | { X.*XVXVXVXVXVXVXVXNXNXNXNXNXNXNXNXNXNXNXNXNXNXNXNXNXNX",
"NXNXNXNXNXNXNXNXNXNXVXVXVXVXVXVXVXVXVXVXVXVXVXVXVXVXVXVXVX3XJ.=.W o.Q | _ 3XNXVXVXVXVXVXNXNXNXNXNXNXNXNXNXNXNXNXNXNXNXNXNXNXNXNX",
"NXNXNXNXNXNXNXNXNXNXNXNXNXNXNXVXVXVXVXVXVXVXVXVXVXVXNXNXNXVXkX*X`.8._ Q +.nXNXNXNXNXNXNXNXNXNXNXNXNXNXNXNXNXNXNXNXNXNXNXNXNXNXmX",
"NXNXNXNXNXNXNXNXNXNXNXNXNXNXNXNXNXNXNXVXVXVXVXVXVXVXNXNXNXNXNXNXNX3X' E F.VXNXNXNXNXNXNXNXNXNXNXNXNXNXNXNXNXNXNXNXNXNXNXNXNXmXmX",
"NXNXNXNXNXNXNXNXNXNXNXNXNXNXNXNXNXNXNXNXNXNXNXNXNXNXNXNXNXNXNXNXmXg.` W F.NXNXNXNXNXNXNXNXNXNXNXNXNXNXNXmXmXmXmXmXmXmXmXmXmXnXnX",
"NXNXNXNXNXNXNXNXNXNXNXNXNXNXNXNXNXNXNXNXNXNXNXNXNXNXNXNXmXmXmXNX5X` ` 0.g.mXmXmXmXmXmXNXNXNXNXmXmXmXmXmXmXmXmXmXmXmXmXnXnXmXnXnX",
"mXNXNXNXNXmXNXmXNXNXNXNXNXNXNXNXNXNXNXNXNXNXNXNXNXNXmXmXmXmXmXxX%.8.W 8.+.xXmXmXmXmXmXmXmXmXmXmXmXmXmXmXmXmXmXmXnXnXnXnXnXnXnXnX",
"mXmXmXmXmXmXmXmXNXmXmXmXmXmXmXNXNXNXNXmXmXmXmXmXmXmXmXmXmXmXmX~.` _ ` +.X.kXmXmXmXmXmXmXmXmXmXmXmXmXmXmXnXnXmXmXnXnXnXnXnXxXxXxX",
"nXmXmXmXmXmXmXmXmXmXmXmXmXmXmXmXmXmXmXmXmXmXmXmXmXmXmXmXmXmXmXJ.#.E E T W dXcXmXmXmXcXmXcXmXmXmXmXmXmXmXmXmXmXmXnXnXnXxXxXxXxXxX",
"xXnXnXmXmXmXmXmXmXmXmXmXmXmXmXmXmXmXmXmXmXmXmXmXmXmXmXmXmXmX~.U.k.{ ] Q _ o.aXcXcXcXcXcXcXcXcXcXcXcXcXcXxXxXxXxXxXxXxXxXxXxXxXxX",
"xXxXxXxXmXmXmXmXmXmXmXmXmXmXmXmXmXmXmXcXcXcXcXcXcXcXcXcXxXI.!.F...W.! T R W { $XzXcXcXcXxXcXcXcXcXxXxXxXxXxXxXxXxXxXxXxXxXxXzXlX",
"xXxXxXxXxXxXxXxXxXxXxXxXxXxXcXcXcXcXcXcXcXcXcXcXcXcXcXdX$.%.*Xg.5XlXo.! 3X!.E Q 8.$XdXcXzXzXzXzXzXzXzXzXxXxXxXxXxXxXxXxXlXlXlXlX",
"zXxXxXxXxXxXxXxXxXxXxXxXxXcXcXcXcXcXcXcXcXcXzXzXzXzX5X..I.` j.aXzX5X#.| #.Q ] 0./ T R F.5XzXlXzXzXzXlXlXlXlXlXlXlXlXlXlXlXlXjXjX",
"lXlXzXzXzXzXlXlXzXzXzXzXzXzXzXzXzXzXzXlXlXlXlXzXzX5XX.;X~.$.zXzXE.Q } ,.,.f s } $X0.Q T W W.gXlXlXlXlXlXlXlXlXlXlXlXlXlXlXgXjXjX",
"lXlXlXlXlXlXlXlXlXlXlXlXlXlXlXjXlXjXjXlXjXlXjXjXdXg.5XzXJ.;XzX3XT } 5.p.5.-.t 7 9.zX!.X.$X8.H.jXlXlXlXlXlXlXlXlXlXlXlXjXjXgXgXjX",
"gXjXjXjXlXlXlXlXlXlXjXjXjXjXjXjXjXjXjXjXjXlXjXlXH.dXjX5XW.jXlX8.: :.4.5.4.:.t & ] dXjXdX!.lX*X3XlXlXlXlXlXlXjXlXlXjXjXjXjXgXgXfX",
"gXjXjXjXjXjXjXgXjXjXjXjXjXjXjXjXjXjXjXjXjXjXjXF.;XjXgXg.gXhX5XE ; -.4.5.4.:.t # @ -XjXjX8.5XgX8.lXjXjXjXjXjXjXjXjXjXjXjXgXgXfXfX",
"fXfXgXgXgXgXjXjXjXjXjXjXjXjXjXjXjXjXjXjXjXjXE.!.jXjXF.;XjXjX!.@ # t t p p p 6 O + k.jXhX;XF.zXI.3XlXjXjXjXjXjXjXgXgXgXgXfXfXfXfX",
"wXfXfXfXfXfXfXfXjXjXhXhXhXjXjXjXjXhXhXhXjX-XH.hXhX~.I.jXhXjX7.+ t :.,.,.m ,.m & + j.lXgXhX..eX5X8.jXjXjXjXjXgXgXgXgXfXfXfXfXfXrX",
"wXwXfXfXfXfXfXfXfXfXhXhXfXhXhXhXhXhXhXhX5X8.fXhXeX$.eXhXhXhX| + t f f m d m p & + V.jXhXjXE.!.lX$.5XgXgXjXgXgXfXfXfXfXfXfXrXrXrX",
"6XwXwXrXfXfXfXfXfXfXfXfXfXhXhXhXhXyXyXhX~.>XyXhXj.;XyXfXyXhX#.+ 6 p s m m m p 1 + ~.hXhXhX>X8.zX!.!.jXfXfXfXfXfXfXfXrXrXrXrXrXrX",
"2X6X0XwXrXrXrXrXfXfXfXfXfXfXfXhXyXyXyXhXW.hXyX~.F.yXrXyXrXyXj.+ # 1 3 i p i 1 O * 6XhXhXfXqXL.jX5XX.hXfXfXfXfXrXrXrXrXrXrXrXqX0X",
",X2X6X0XwXwXrXrXrXrXrXrXfXfXfXrXrXrXrXhXP.hXyX%.eX8X>XqX8X>X7.O . . . . . . . O j.hXyXyXrXhXP.hXhXo.5XrXfXrXrXrXrXrXqXqXqXqX0X0X",
":X,X2X2X6X0XwXrXrXrXrXrXrXrXrXrXrXrXrXyXQ.yX;XH.I.;.} { O.s t X   . X o $ 1 3 - >XrXrXrXrXhXP.hXyXH.~.rXrXrXrXqXqXqXqX0X0X0X0X0X",
"{.:X:X2X2X2X0X0XqXqXrXrXrXrXrXqXqXrXqX9XJ.k.} 4.C m m m C i a o     X o $ $ & -XtXtXqXrXrXhXP.yX0X>X`.rXqXrXqXqXqX0X0X0X0X0X8X2X",
"'.{.}.:X,X<X2X8X8X0X0XqXqXqXqXqXqXqXqX~.6.z.s 2.<.D M l M k 2 5 > X X X X , u [.1X1XqXqXqXyXK.yXqXrXQ.rX0XqX0X0X0X0X0X0X8X8X2X,X",
"_.'.'.}.}. X,X<X7X8X8X9XqXqX0XqXqXqX].>.t.2.k t.q.K q.I b k a < >   X o $ w ,.s ,.p.k.E.>XqX[.>XqXtXW.yXqXqX0X8X0X8X8X8X2X<X,X,X",
"_._.'.'.{.{.}. X X<X7X8X8X9X9X[.~.9.-.K d.r.m G q.r.b.Y Y h x 0 9 o > o > x Z a S z.XXn.4.V.I.G.qXtXL.tX9X9X9X8X9X9X8X<X<X,X}.{.",
"R././.(.'.{.{.}. X X<X X7X7XE.,.G m z.U Z v e.n.l.q.l.c.u.Z I K b x e J B J K b b r.N.N.XXb.q.,.D.tXJ.qX9X9X7X8X7X7X<X<X X}.{.{.",
"T.R././.(.'.'.{.}. X|.[.|.E.<.r.t.M J m.J z u.U c.l.r.r.Y Y Z Z J v.m.r.c.U c.U q.oX.Xm.c.uX+Xu.a.C.{ O.7.W.7X7X<X<X X X{.{.{.'.",
"T.T.R.R././.'.^.O.I.H.,.p.K J Y J A v.m.K K q.U v A c.u.A P J A .Xv.v.m.c.v..XoXXXb.v.+X.Xb.u.S c.v.w M D <.j.Q.|.|.}.{.{.'.(./.",
"Y.T.T.R.R././.n I c.K d.U Y Y A 9 Y P r.J x N Y A u.u.L P h P L P s.g P Y s.u.M.z.l.n.n.v.2.2.n.b.P K N K H q.,.>.^.{.'.(.(././."
};
