/* XPM */
static char * grass_xpm[] = {
"64 64 514 2",
"  	c #517326",
". 	c #57782C",
"+ 	c #58792D",
"@ 	c #628435",
"# 	c #5C7E31",
"$ 	c #56782A",
"% 	c #4B6C1F",
"& 	c #496821",
"* 	c #57782D",
"= 	c #5B7E2E",
"- 	c #527526",
"; 	c #4F7122",
"> 	c #4D6F22",
", 	c #48681F",
"' 	c #517227",
") 	c #5A7A31",
"! 	c #527427",
"~ 	c #537428",
"{ 	c #4D6E23",
"] 	c #597B2E",
"^ 	c #537626",
"/ 	c #4E6F25",
"( 	c #4C6C22",
"_ 	c #507225",
": 	c #597A2F",
"< 	c #46651F",
"[ 	c #496A20",
"} 	c #4C6D21",
"| 	c #587A2B",
"1 	c #517228",
"2 	c #57792C",
"3 	c #4D6E21",
"4 	c #4B6D20",
"5 	c #47681E",
"6 	c #58782F",
"7 	c #608137",
"8 	c #517225",
"9 	c #55762B",
"0 	c #608234",
"a 	c #5A7C2E",
"b 	c #56772B",
"c 	c #527326",
"d 	c #47671E",
"e 	c #54742B",
"f 	c #5D7F31",
"g 	c #547727",
"h 	c #4F7222",
"i 	c #517425",
"j 	c #46661D",
"k 	c #4E6E24",
"l 	c #56762B",
"m 	c #5F8034",
"n 	c #4A6A21",
"o 	c #46651E",
"p 	c #4E6F22",
"q 	c #517226",
"r 	c #547627",
"s 	c #4D6D23",
"t 	c #4B6B20",
"u 	c #4E6F24",
"v 	c #5D7E33",
"w 	c #4F7024",
"x 	c #587A2D",
"y 	c #4A6B20",
"z 	c #4F6F27",
"A 	c #4C6D20",
"B 	c #56792A",
"C 	c #537725",
"D 	c #47681D",
"E 	c #4A6B1F",
"F 	c #4A6C1F",
"G 	c #527229",
"H 	c #4A6A20",
"I 	c #56772A",
"J 	c #527328",
"K 	c #4C6D22",
"L 	c #4E6D25",
"M 	c #58792E",
"N 	c #547629",
"O 	c #517126",
"P 	c #52712A",
"Q 	c #507124",
"R 	c #537526",
"S 	c #4A6C1E",
"T 	c #527524",
"U 	c #557729",
"V 	c #4E7023",
"W 	c #47671C",
"X 	c #537429",
"Y 	c #55772B",
"Z 	c #4D6E22",
"` 	c #4D6D24",
" .	c #4E7022",
"..	c #4D6F21",
"+.	c #54752A",
"@.	c #547826",
"#.	c #4A6C1D",
"$.	c #4B6C20",
"%.	c #4C6E21",
"&.	c #597930",
"*.	c #597C2D",
"=.	c #5B7B33",
"-.	c #496820",
";.	c #486721",
">.	c #54742A",
",.	c #5A7B2F",
"'.	c #56762C",
").	c #49691F",
"!.	c #5E7F34",
"~.	c #567829",
"{.	c #547628",
"].	c #5B7D2E",
"^.	c #5D7F30",
"/.	c #496A1F",
"(.	c #45661B",
"_.	c #4C6E20",
":.	c #597A2E",
"<.	c #45661C",
"[.	c #547528",
"}.	c #57792B",
"|.	c #66873B",
"1.	c #537328",
"2.	c #426219",
"3.	c #547429",
"4.	c #4F7124",
"5.	c #55762A",
"6.	c #638438",
"7.	c #527227",
"8.	c #4F7123",
"9.	c #4F6F25",
"0.	c #5E7F33",
"a.	c #47671D",
"b.	c #557728",
"c.	c #5A7C2F",
"d.	c #46661C",
"e.	c #47681C",
"f.	c #56782C",
"g.	c #56772D",
"h.	c #57782A",
"i.	c #54762A",
"j.	c #507125",
"k.	c #537627",
"l.	c #65863A",
"m.	c #59792E",
"n.	c #44651B",
"o.	c #527426",
"p.	c #4F7023",
"q.	c #507028",
"r.	c #4B6D1F",
"s.	c #537527",
"t.	c #587730",
"u.	c #517029",
"v.	c #537528",
"w.	c #507323",
"x.	c #5A7B2E",
"y.	c #537529",
"z.	c #5E8032",
"A.	c #557827",
"B.	c #517129",
"C.	c #597B2D",
"D.	c #55772A",
"E.	c #557629",
"F.	c #5B7C30",
"G.	c #56782B",
"H.	c #4C6C21",
"I.	c #54742C",
"J.	c #4F7223",
"K.	c #45641E",
"L.	c #4F7026",
"M.	c #56772C",
"N.	c #5A7A33",
"O.	c #507025",
"P.	c #4E6C28",
"Q.	c #507222",
"R.	c #48691E",
"S.	c #587A2E",
"T.	c #5C7D31",
"U.	c #5D7F32",
"V.	c #496921",
"W.	c #4B6C22",
"X.	c #4E6E25",
"Y.	c #496B1E",
"Z.	c #4B6C21",
"`.	c #48681E",
" +	c #517325",
".+	c #517128",
"++	c #405F19",
"@+	c #5B7C31",
"#+	c #5E7F32",
"$+	c #507224",
"%+	c #486720",
"&+	c #506F27",
"*+	c #577A2B",
"=+	c #507126",
"-+	c #58782E",
";+	c #648639",
">+	c #45641C",
",+	c #4F6F24",
"'+	c #45651B",
")+	c #4E6F23",
"!+	c #4D6F20",
"~+	c #5A7A30",
"{+	c #537427",
"]+	c #557829",
"^+	c #4C6C23",
"/+	c #47661E",
"(+	c #507026",
"_+	c #618237",
":+	c #547529",
"<+	c #527228",
"[+	c #46671D",
"}+	c #597A2D",
"|+	c #55742D",
"1+	c #4D701F",
"2+	c #537329",
"3+	c #5C7D32",
"4+	c #55752B",
"5+	c #46661E",
"6+	c #4D6E24",
"7+	c #58792C",
"8+	c #496A1E",
"9+	c #4F7025",
"0+	c #52722A",
"a+	c #517324",
"b+	c #45651D",
"c+	c #4B6B22",
"d+	c #48681D",
"e+	c #46651D",
"f+	c #4F6E27",
"g+	c #4E7122",
"h+	c #4A6B1E",
"i+	c #4D6C25",
"j+	c #67883C",
"k+	c #45631D",
"l+	c #5A7B30",
"m+	c #63843A",
"n+	c #68883F",
"o+	c #4D6C24",
"p+	c #496920",
"q+	c #5D7E32",
"r+	c #57782B",
"s+	c #51702A",
"t+	c #547726",
"u+	c #44641B",
"v+	c #65863C",
"w+	c #688840",
"x+	c #4B6924",
"y+	c #587B2A",
"z+	c #5E8033",
"A+	c #597B2C",
"B+	c #587A2C",
"C+	c #5D8130",
"D+	c #65853D",
"E+	c #557828",
"F+	c #4D6D22",
"G+	c #66873D",
"H+	c #45641D",
"I+	c #43621A",
"J+	c #4F6F26",
"K+	c #4A6A22",
"L+	c #517524",
"M+	c #507322",
"N+	c #517127",
"O+	c #517327",
"P+	c #5E8131",
"Q+	c #4B6B21",
"R+	c #628337",
"S+	c #577A29",
"T+	c #527428",
"U+	c #527129",
"V+	c #57782E",
"W+	c #4B6E1F",
"X+	c #517424",
"Y+	c #57792A",
"Z+	c #597C2C",
"`+	c #527525",
" @	c #47671F",
".@	c #45661A",
"+@	c #5E7E35",
"@@	c #597C2B",
"#@	c #507223",
"$@	c #4A6A1F",
"%@	c #5B7D2F",
"&@	c #557928",
"*@	c #4C6B23",
"=@	c #436319",
"-@	c #608037",
";@	c #45651C",
">@	c #527329",
",@	c #476620",
"'@	c #527327",
")@	c #46671B",
"!@	c #4F7022",
"~@	c #4E7021",
"{@	c #5E8034",
"]@	c #43611C",
"^@	c #54732D",
"/@	c #41601A",
"(@	c #48671F",
"_@	c #55762C",
":@	c #4E7121",
"<@	c #44651A",
"[@	c #56762D",
"}@	c #5A7C2D",
"|@	c #57772C",
"1@	c #4E6E23",
"2@	c #4B6A22",
"3@	c #5F7F35",
"4@	c #5C7D2F",
"5@	c #48691F",
"6@	c #4E7024",
"7@	c #476520",
"8@	c #5A7D2D",
"9@	c #54752B",
"0@	c #587B2B",
"a@	c #507027",
"b@	c #4C6C24",
"c@	c #506F2A",
"d@	c #5D7F33",
"e@	c #4D7021",
"f@	c #507324",
"g@	c #5C7F2F",
"h@	c #5D7D34",
"i@	c #5C7E2F",
"j@	c #42601B",
"k@	c #55752C",
"l@	c #5B7E2F",
"m@	c #4D6D25",
"n@	c #5B7C32",
"o@	c #48691D",
"p@	c #4A6920",
"q@	c #53732A",
"r@	c #47661F",
"s@	c #5C7F31",
"t@	c #597B2F",
"u@	c #638537",
"v@	c #4C6D23",
"w@	c #4C6B25",
"x@	c #587830",
"y@	c #4C6B24",
"z@	c #5B7D30",
"A@	c #4A6B21",
"B@	c #5F8134",
"C@	c #496B1D",
"D@	c #547728",
"E@	c #486820",
"F@	c #5C7C33",
"G@	c #4B6B23",
"H@	c #507226",
"I@	c #49691E",
"J@	c #5C7B35",
"K@	c #4F6F28",
"L@	c #59792F",
"M@	c #415F19",
"N@	c #55762D",
"O@	c #5E7E34",
"P@	c #5D8032",
"Q@	c #44621C",
"R@	c #4D6C23",
"S@	c #577631",
"T@	c #567A29",
"U@	c #5C7E30",
"V@	c #42601A",
"W@	c #69893F",
"X@	c #44631A",
"Y@	c #46671C",
"Z@	c #58792F",
"`@	c #56752E",
" #	c #5B7B31",
".#	c #49681F",
"+#	c #597A30",
"@#	c #618238",
"##	c #57772E",
"$#	c #5C7F30",
"%#	c #416019",
"&#	c #68883E",
"*#	c #57772D",
"=#	c #5C7E2E",
"-#	c #44621E",
";#	c #5B7C2F",
">#	c #42611B",
",#	c #648539",
"'#	c #527425",
")#	c #5F8037",
"!#	c #638538",
"~#	c #507127",
"{#	c #648538",
"]#	c #628336",
"^#	c #5F8133",
"/#	c #628437",
"(#	c #5F8132",
"_#	c #54732C",
":#	c #4F7125",
"<#	c #517028",
"[#	c #44641C",
"}#	c #5C7C34",
"|#	c #567729",
"1#	c #53732B",
"2#	c #608333",
"3#	c #618235",
"4#	c #5C7D30",
"5#	c #5D8031",
"6#	c #618137",
"7#	c #4E6D24",
"8#	c #618336",
"9#	c #628436",
"0#	c #567928",
"a#	c #5B7D31",
"b#	c #57792D",
"c#	c #496A1D",
"d#	c #43611B",
"e#	c #486621",
"f#	c #5C7E32",
"g#	c #5A7C30",
"h#	c #587B2C",
"i#	c #44631C",
"j#	c #638539",
"k#	c #5A7A32",
"l#	c #608136",
"m#	c #53742A",
"n#	c #47691C",
"o#	c #47661D",
"p#	c #5A7A2F",
"q#	c #5D7E34",
"r#	c #64833B",
"s#	c #486A1D",
"t#	c #5C7F2E",
"u#	c #5C7D33",
"v#	c #567929",
"w#	c #5F8036",
"x#	c #4D7020",
"y#	c #5F8035",
"z#	c #577A2A",
"A#	c #547827",
"B#	c #5D7D33",
"C#	c #628239",
"D#	c #4A6922",
"E#	c #45631E",
"F#	c #55752A",
"G#	c #55742C",
"H#	c #4E7020",
"I#	c #51702B",
"J#	c #4C6F20",
"K#	c #5C7D34",
"L#	c #496B1F",
"M#	c #628438",
"N#	c #43631A",
"O#	c #45641B",
"P#	c #608036",
"Q#	c #5D7C35",
"R#	c #4E6F26",
"S#	c #5B7A33",
"T#	c #48671E",
"U#	c #698A3E",
"V#	c #567828",
"W#	c #53722A",
"X#	c #436219",
"Y#	c #44631B",
"Z#	c #64853B",
"`#	c #44631D",
" $	c #46651C",
".$	c #557628",
"+$	c #4A6921",
"@$	c #56752D",
"#$	c #608235",
"$$	c #5B7B32",
"%$	c #537625",
"&$	c #608135",
"*$	c #44641A",
"=$	c #42601C",
"-$	c #517323",
";$	c #4A6923",
">$	c #58792B",
",$	c #4E6C26",
"'$	c #466520",
")$	c #618236",
"!$	c #54732B",
"~$	c #44621D",
"{$	c #4E6E27",
"]$	c #46641E",
"^$	c #43621C",
"/$	c #618139",
"($	c #62823A",
"_$	c #56762E",
":$	c #67883E",
"<$	c #5B7C33",
"[$	c #4E6E22",
"}$	c #4C6B22",
"|$	c #47681B",
"1$	c #68893E",
"2$	c #53722B",
"3$	c #608134",
"4$	c #628338",
"5$	c #56762F",
"6$	c #56752F",
"7$	c #45651A",
"8$	c #618136",
"9$	c #4C6E22",
"0$	c #618138",
"a$	c #4A6822",
"b$	c #46661B",
"c$	c #4D6D26",
"d$	c #46641F",
"e$	c #42621A",
"f$	c #4C6F1F",
"g$	c #415E1B",
"h$	c #42611A",
"i$	c #57772F",
"j$	c #4A6C20",
"k$	c #5E7F36",
"l$	c #618335",
"m$	c #587B2D",
"n$	c #4D6C26",
"o$	c #618334",
"  . + @ # $ $ % & * = - ; > , ' ' ) ! ~ { ] ^ / ( _ : < [ } | 1 2 3 4 5 6 7 8 9 ~ 0 a b $ c d e f g h i j k l m n o p q r s t u ",
"v w x y z A 4 n s B C D E F { G } H s I J K L M N x O P ( Q R S G | T U V W * X Y Z `  ...j s +.@.#.$.E %.&.*.=.~ n -.F ;.>.  ,.",
"'.).!.~.c {.].9 ^./.(._.:.. w N ' <.:.2 [.w }.|.1.2.H 3.R b 4.5.6.* 7.8.U 9.0.a.!.b.r 4.].. c.8 d.e.f.,.w g.h.i.j.k.X V }.l.m.n.",
"o.J o.8 p.q.d r.s./.t.3 & q ~ q p u.g.v.  5.^ w.4 d x.v n y.z.x.A.B.C.D.E.F.N V G.g A X ;._.s.H.I.J.K.L.M.k E.N.O.P.s [.B Q.Z R.",
"S.B +.T.J :.U.] Z V.W.~.X.$ Y.Z.O.`. .J. +y M./.8.3 .+ .W.++Y.V.j.O '.9 5.b J 0.. @+b + #+c.$+%+y b.&+*+$.y =+K Z  .  $.-+3 3 ..",
";+_ ~ 2 =+>+5.o.> _ ,+n '+K y }.q I.)+A ..!+>.~+v.{+]+0.Z :.p $.g.^+/+-.(+$ _+:++.}.X /+<+g V 8 $+H '+w [+}+{+|+'.E p.1+2+3+9 j.",
"s.4+}._ 5+' |.}.6+7+ +J.8+$.Z 9+0+_+k.o w.s.X p a+Y.} b+V.~.V 2 ' E.c+d+,.+ s.' . R e+f+l.] ' v.o.g+h+} )+X i+j+b.k+a+$+:+{ k.(.",
" +R H a.l+F.m+N n+o+5.4 w `.j i+B | v.s b.X a C.*.r.' p+)+q+r+ .2 - `.s+:.t+{+4.Z.u+,.U v+$ w+9.J o., } d.x+$ y+}.n i ' : ] = %.",
"..d+E ) z+A+2+B+2 r C+A k  +D+^.E+s.5._ F+<+, b V 8 G+}.)+j.H+I+} Z J+K+L+M+_.e.R.N+v z.O+l+. a+P+$+Q+R v R+S+^ 5.T+u U+Z.V+W+j.",
"( r.y  .X+m.9+~ A H._ 0.u ..p Y+A.Z+`+{. @.@%.+@ +%+=+w X ).)+w b.@@ @E > Z /.3 8.r.#@z+} + $@$.{ %@X ....B+E+&@E+- *@=@#.-@o.).",
"/+v.( 4.E+U X ;@F ' 9.)+g+S p+J.Z =+Z y +.1.%.} } 8.$.w.b . Z.-.>@~ X.} =+7 ,@q u '@`+Z+' c+)@'@N+s 3 _.Q+r.V n   ).1 +.E } y !@",
"X '.)+'+~@R `.4+{ {@^.H ]@e.' j.M ~._ j.N ^@E !+e./+3+  <+9+V   )+I.y./@(@8 + _@u ;@~@:@Z.i+~ M x 8.%+<@J O.[@$   } }.g.$@..Y.d ",
"w '.6+%+`+}@w B+J |@B+B.2+V d.).1@D e.E+Y+2@j.p `.r.X.=+3@4@z.f O+ +U.A+3 5@6@X q 7@J.8@~ ~ 9@>.2 >.' s.D H+> ( .@s.r '@9.8 d F ",
" .~ N # 0@a@(+G.b@c@d@t $ o.* -.$.G  .e@~ 9 r+q [.2 o.x.= f@<+~@/+ +e@  ;@c+ .9+E.. g@1 X.D.J+q.h@u U f@b ( W g.8.)+$+l+U J p.2 ",
"i@N+V+x.Z.j@J+,.k@(.`.E E ( =+'@{+j.4.F y )+B+Z.=+4.4 k u {. .F E * =+)+:+Q+l@N+. c.w /@m@j.n@j d+H o@s s 9.s.E.~ $.`.4.{./.=+Q ",
"} ` ~.y p@+ +.B.q@N+r@a.d.C.s@'@t@. } Z.4 U <++.v.A.j a+`.a u@(+/.I r } +.9.w v@s.V d 5.2 w@x@j.y@d.d B+0 q z@J K D y o.=+=+5.^ ",
"R.s.l+o.w s 3 w O+/...A@H v v.v.$.~ j.[+H Y+z.{ y p '@$+Q ] )+B@C@H '+ .c+(+d+i 0.D@4.n p.{ '@`.} V E@7 Y+: ^+G s+8+Q+b.U.} { )+",
"F@8 F+4+.+Z . k 2+:./.9.{.. ~ E@G@..M.H 4 ^+J+X./.i a.d.E.k.c+J+Z H@I@ .d+J J@~.p+. G p.b '@G . Q+W.$ M F+=+d.I@2+w o@Z.K@L R.o.",
":.).V x L@}.8.d.M@a.w 2+q r+w   . N@O@P@B+2+} R.Q@a.D } R@D s.S@`.k F ..++T@U@Z /.f M }+ +F /@e+[ =+$ '@J L. .{ ~ =+2+_ `.Z V@5+",
"}.W@<+* [@[.! 8+}+X@} ]+b.{.f@T.b Y@a.o.$ '@Z.! I.$.b+e+$.F V c.  e Z@T.q Z@I R+`@N+ #Y {.I@b .#d D@]+s.~@p+)+w )+}.}.7+y ! I.W.",
"M.u.+#@#k B+c+X A+b :+: O+> {+i  .)+##-+E r.( ~ $+{+! ). #$#l+2+=+Q } B+! %#v.a@b &#F+$#Q+q@}.}.G.'._ 8.> q -.u+D@_ )+$.$._ o.N ",
"E+j *#(+/ ! G }@p+[.. j.u y j.> $.t (+Z@y@> / /+d.j s . ] 0@=#R+9 -#6+i _@e+G.$@N+5.s H q@v s '@q+ +V ;#p V {.>#$ N I ..n p+u+`.",
",#` k w X 5.u '#e+D@'@, R.V )+)+A x : k q+{.s.& c 9+` :+p._. +l@u :+: ~ )#%@!###^+'@w X 9+0@e+c D.' {._ F+q '#U ] ~ j.a+'#*@6@~#",
"D.K ` D E 2@/.y > o.:+t@(+r@b@X.1@9+o.c.E.D.o.q@{#].4.9.$.k.3+Q D@]#_@;@t ^ N ' c+E o@s ).j $+Q K c :+F+Z w , ^#I ..2 x s.v@/#(#",
"9.j K.G@Z N 9.;@b G.:+u { U %.q ~ U@s.b J c. +_#9+`.'@Z :#<#6@+ ]+r ..(+[@##).n /@& K }.9.[#9+J ~ }#, q 8.Z } ~.Y }+|#+ '#1#O [+",
"Z f.+ 2#3#v._ F / b 4#}@*.o.p+'.[.x R.^+R.' $+,+9._ l k+R.p B+u : 4 > /.g.h@} +.5.5#U@I )+8.W.4+s.. (+5.<+9.r+~ _ 2+/.Z w ( } '@",
"6#O+: E n $.9.~#Z ~.0@ +k Z H + j.=+$+7#9+R.I.v D.:+9+U+^+$@a+_.[@U.o.E._ D O@M.Z@Z.H 3 { u <+D.U V ( > ..: E.,.| Z.2@E z Z@G.b ",
"9 5@z@B s.[.}.'@q p+c+ + +w p r+~ Y@M.;#~ Q Z+8#q '+,+5.r ] U b z.*#X 8.E.* 0.(.F.Y+$+s =+C.%@f@N+  l X.4.X :.{+p.N >@Q }@9#5.e.",
"'#x l+Y Z J+,+Q ^+ .1@{.~ j.8 u Q u.+#~.R [.{.h > R.:.q+{ q *.x.0#0+F.:.l . o.{.a#b#c ,+9+~ 8.R.b f@H+~ Y } ~ ! $.).4.s.$ L+p /.",
"3+U 9+q+b :+:+ +,+  } U u 2 c#4.Q+/. +g+..).q@a.$+V G  .( d#h+e#.+G ~ =+' . M.f#~ g#z@[.J+(+ .q w ~..+h#% w N i#s w v.A I.Y.V Z ",
"j#k j.y.R.E@9+  )@`.k 9+u+p+w U z ' Z.$.; ^ ,.m D.o.I k#V.}.n 8.2@{ i#H.N l l#2+u . y E@{+  Z.m#j.^+<.u n {.p+{ + W.3 `+:.^#,.)+",
" .X U j.`.j.J+Q+A V Z ~@/.E y X 1 # Q b@8._ ' } _ n#H o#c+l@ +}@  B ( o@l+v 8.9+U o.p+a@p#k ' $+p.~@8+4    +c+} ' p+$+Z '@$.s.<@",
"r w.$.K j.E.m#} 1#-.. /.u y / y@r ^ o.(+b.M.] # a g+. ^+^+q#N $.9 N y ^@g#0#D@ .e.K.q+B M Y+r#k 9 !  @)+q v@8.C.j.E %.J :.f l@$+",
"s#E Z F ^+'@6@$ ~ s.t#- :+s.u#}@v#k.] )+R@e ( M V F+w#$ ' j.c+`._ 4.n Z.`+x#n#e.} ( l+c.9.y#' 4.5#E+  Y+:.L@_ s _ } n I.K l+..s ",
"O  .O.$+k r@e+y 4 ^+u @+:#~@ +z#A.A#8.N+< D F B#)+-.u [.J '+8+)+ +z#%+`.} 4 H.a+Q !+r f y j.E y o+* :+ .'#q+x =+$ d c+d.C@O@_ `.",
".#c 9.$+r 6+)+H+} D.:+9+V o@& Q {+* w L ] 5.; E Z 8.).a+M.q+s r@G )+^+4.O.C#D#_ J+H@ +a )+E#Y@G.F#9+Z.F ^+$.! y.B w . 7+..E t X+",
"|@g.s `.e@4.q %@p.O@c.c+]@R.1@)+>.v# .u p X.)+..F V.y#'@G ^+$.s.F+2+N+/.9+! ] G#s H+_.H#w 9@{.L@9 )+D#R.( K (+s.p K  +w k 8.!+).",
"w :+H@J+U }.9+b J 6 T.J+. j.d ).K '+o@E+Y+K+'@n Q+> 1@+.O@C.z@*+K K )+~.)+y p ! s.2@{.| J c F#V+@+>@~ ~ p+/+K n s#q o.'@9.6+, )+",
". ~#+#!#*.D#` Q -.I#l+$.i  +v > Z m...J# +X G.8 x B+- h#Z+ +u u =+} $+4.y X.I / 2 3#^#& s j.Z.i+K#$.X+A + o.E ] o.Z.$.<+! w [.C.",
"*.=+4+9 Q+o q@2 -+W [#D E X.+.'@G.).c R.d w I p+6+$+a.k W.! $+)+8 w :#a+x 9 7+=+i.. F+H+<+H@3+).u+d L#6+J q U =+v.4 q s u [+s $+",
"5@<+B+t c+,.y.m@+.N+` [ 5@,.M#*+D.9 n e.F o.+.2 I s.c+R y C.C.'@'#j.M.].D.! 6+/ B+u , 9 x.N#-+'@.+$.`.$++ $+8.j.Z.r. .f@+ ! 2 j.",
"k R 9 '@8 E 3 '@k D C@d+`.,.8 b O#P '.Z H ]+f Z.} Q q 8.V v.K l+8.` Q+_.( k G@k.+ s. +A@..! 9+;@8+8.p@9.E 9 p+k L $@( k#7+H.Z _ ",
"P#k H ' |+o.M y@l z@)+F#B+w Z.D 5 y O.o@$.u R.o+Q+  N#d.X   `.d q   K } R.q Q#D.o 5.I.{.* N+N+,.~#R#6@$.H.c.(+Z 1@F+4.2 u (+).  ",
",.4.V N -+N  +E b+o#! J s.[.K ! 8 w Q+~ > ,+)+{ (@H h+Z J+e.Q S#I@9.V p >+0#q+ +Z.x ) N '#e@H+(@y N :.<+T#+.w Z.$+H.5.J ).8 H+Q+",
"R U#>.M ##a - ( C.<.u v.  `+)+, Z.5. +;#V#Q 8 :+<#/.H+/+y  .o.5.v.b T.v c W#c M#*#m#+## A.H }+[ d )+s.T 3 X#c+9+V I $ '@Z ' q@5 ",
"9 n 6 +@n x G {.]+c N X H b.c 8 =+<+:+> $.a.` =+} ~ U u l+z.] {+v.8.3 8.j.Y#  c+>@Z#n ,.(+: Y+D@j.a#p.9+~ w L.e+*+~   8+V.=+Z 9 ",
"t+p+<+w ! v..+Y+K 4.U : | $#(+$@Z ' 9   . Z K j@ @j K++#{.~.z#}.1.w /.> J /+r )+c+c q W.e c.Z.[.t@{.2 o.o+v.2 , +.' &.X -.`#i#Q+",
"/#w < 9.>.2+{ > d #@j.9 D.w H /+c#M 4+j.r+- r , N ~ (+'@{ V '@! 5.I j.s.v i@0 + /+' ` +.k v.d 8.R e }...=+=+A j.c.~ + D@t+c+=+>.",
"o.>+G@I+$.n `.Q+8.p K ~+m#u y J '@G $+x '@[.3 q@B@k.j.|+H - 9 > { K ..} =+{.q R.[ >+o@,+ $, p.v.:#U@*#{ )+8 k 2 N .$. + f@` {@h#",
"j.} ^+9@$+[.5.).p U [.' ( ~  .  q@# 4.J '@x.^ `@K ^+:+j '@+$_ 9+Q > g+)+U+e K > , <#$+$ b p+Z . l#C.$.i. .8.9.%@o.+ N 2 v#@$9+r@",
"p.. 4#U@#$9+p o.(+5. +j.%.O+, : ~.{.$@c+e.k ! X ~ v.>.o } 6@U } >.)+8.Z e $$8.9 . U@f J > 8.6++#8@i i ~@j J+B+i.N (+/.Z =+=+j.G.",
"y#1@@+$.y J.:+X.~ '@4.b :.E.} :+j.-+Z.7#'@4 k P#X ' 9+W#n  .%$$+0.a c o.o.a.B#<++#> y ~@U b@Z '@w.n#s#'@w u w u#8@8.J+..A@ #_@N+",
"+ d.b.s.s.x r K Y :+! ] 2 4.q + 4.H e+=+A@ +}@f  .`.X B+D@3+a . a '.9+$+f.O@&$*$U b.a+. *+{ c.)+=$% M ~ :#9+) %$-$E.( V a #+  S ",
"V . * x 3 W.f+$+8 ;$9.  2@! s.9+r `+(@5.{.9 $ :@I@Y#. !.V.%.o.M.`+y@}+>$] 2 > f.T.] V u ,$$+]+b+5.w.'${ '@H.N c Y@8+s.c c.h /.u+",
")$T@2+z@+ !$}.a 4 H Q+s.4.$ $.O.~.H ##I p 8+a@H b. +p.o.).~$r.d#[@k u.{$u [. #5#f.] T.M.$ $# .s Z.U K *.e.O   ]$9+)+j.S z } ! 8 ",
"U.u  +~ >+c+C#E+E :+s.Z.Y@Z.)+:+[.N q@y o. +T.# o.8.q e n 2 w 8.u j.^$o#'@{+z@O.j.N d.o /$0@$.O+Y+Q+(.K u R Q+($J ).'#h T.#+2 y ",
"p.9 $ )+s _$:$'@<$=+{ h %./.j [$}$5.! (+'#~ v.8+s.|$A@/+Z U@~.Z+N ~.F+D 3+x _ (+. a+( .+1$'@O@V w :@E $.`.@$b f D@d#R 8 5./.U <@",
"k.8.a.2$3$].2 B j#'@;#R.c+4 _@1.%.' 4$)+Q <+~ # B #@C#(+} * A@>+J V O.5$}.0#s. .j i+&$g@C.}.Z#N 7+p.H+V 9 6$D@@.I  + .(+m#z.~.a+",
"7$o@/.(+2 +.q@c.q   8@$ O+$+' $+B+0@+  .K { I@X $+Z.c.o.'@4.s H.4.s.n $@8.#.(.)@3 /.D.z@k 8$9+V *.B+! R ~ %@^ A.A+i.(+J+8+9@ .s ",
"q  +K f@A#c.w % c#K H. #9+ .o.'#2 w.%.e.Q@y 9$0$w b@k q q@Y@n#)+~ $ a$E Z o.Z s.Q J.^ (#p.p.b$$.c+9@9@e@$+r `+~@; C@Q@[#c#C#'@/.",
"*@c ^+$.c {.k >#4 *#G.9+Z e.Q+8 j.'@9+J + O.#@E $.A ( '#5.c.j.n (+4.u $.'@6#c$q ` u  .$ s d$R.9 b _ H.e.Q+u D.k :+K p#E...4 /.!@",
"9.) K e$f$E+E ^.(+@+a ^+g$E 6+E .+U > ~@i ^@( :@(.5@3+u L@k 8.v.j.K 9 *@& )+:+##=+h$f$X+4.X M.b G.q r@8+X.d &+$ } } w.'.( $+s#d.",
"3 [.U _@a U 2+S.3.i$y#u x.=+r@;@y %#% g a ^++.[   Z 9+: m b.}+7+[.} O.^ o@<@j$R B 0+a U +.[.M.&.k$J D.N 2@i#`.`#o@s.B+[@O c+)+u ",
"B+2+t@l$z#x+` Y %+& o.y o.i 3+4._ s@$+r.j.N {.o.D.U f@$ 2 i   q * / > u 6+9.m$a@2 z+g@n$*@9+^+, - [ o.#@+ {+% o$s.Z 3 * r c '@N "};
