/* XPM */
static char *img_test[] = {
/* columns rows colors chars-per-pixel */
"32 32 7 1 ",
"  c None",
". c #A50C0C",
"X c #BB4444",
"o c #BB6E44",
"O c #44BB4C",
"+ c #7544BB",
"@ c #BB4498",
/* pixels */
"  ooo         O    O          o ",
"ooooo        O      O        o  ",
"    ooooo    O      O       o   ",
"  ++o+++ oo O       O    @ oo   ",
"ooooooooo  oO       O    @o  o  ",
"      o+ ooooooo    oO   @o  o  ",
"oo    +o   ...oooooooO   o@  o  ",
"  oooooooooooooo.  ooo  o @oo o ",
"     +  o      o . o Ooo oo o o ",
"     +  o      o  o  Oo o @  o o",
"     +  .o     o o .ooOo o@   oo",
"    +  ..o.     o oo  Oo  o    o",
"    +     o....ooo    o    o    ",
"    +     o   ooo     oO   @o   ",
"    +      o  oXoXXXXXoO   @ o  ",
"     ++    ooo Xo    o O   @ o  ",
"       +  ooo  o     o OX  @  o ",
"  @@    oooo   o    o  XO  @  o ",
"  @@  oooo o  o     o XXO  @  o ",
"    oooo.XXo  o    oXX  O @   o ",
"  oooo    .Xoo...XXo    O @   o ",
" ooo  @   OooXXXX o     O @  oo ",
"oo     @Ooo o     o   OOO @oo   ",
"     oooo  oooooooooooooooo     ",
"   oooooooo o    oOO     @      ",
"ooooo@@@OOOOoOOOOo      @@      ",
"     @@    o     o   oooooooo   ",
"       @@@o@@@@@@@ooo@       o  ",
"        oo       oooooooooooooo ",
"      oo   oooooo oo          oo",
"   ooo oooo       oo           o",
" oooooo            ooooooooooooo"
};
