/* XPM */
static char *player64[] = {
/* columns rows colors chars-per-pixel */
"64 64 2 1 ",
"  c #4B20AB",
". c #848484",
/* pixels */
"..........................            ..........................",
"......................    ............    ......................",
"...................   ....................   ...................",
".................  ..........................  .................",
"...............  ..............................  ...............",
".............. .................................. ..............",
"............. .................................... .............",
"...........  ......................................  ...........",
".......... .......................................... ..........",
"......... ............................................ .........",
"........ .............................................. ........",
"....... ................................................ .......",
"....... ................................................ .......",
"...... .................................................. ......",
"..... ..........    .........................    ......... .....",
".... .......... .... ....................... .... ......... ....",
".... ......... ...... ..................... ...... ........ ....",
"... .......... ...... ..................... ...... ......... ...",
"... .......... ...... ..................... ...... ......... ...",
".. ........... ...... ..................... ...... .......... ..",
".. ............ .... ....................... .... ........... ..",
".. .............    .........................    ............ ..",
". ............................................................ .",
". ............................................................ .",
". ............................................................ .",
". ............................................................ .",
" .............................................................. ",
" .............................................................. ",
" ............................         ......................... ",
" ............................ ....... ......................... ",
" ............................ ....... ......................... ",
" ............................ ....... ......................... ",
" ............................ ....... ......................... ",
" ............................ ....... ......................... ",
" ............................ ....... ......................... ",
" ............................         ......................... ",
" .............................................................. ",
" .............................................................. ",
". ............................................................ .",
". ............................................................ .",
". ............................................................ .",
". ..............                                  ............ .",
".. ............. ................................ ........... ..",
".. ............. ................................ ........... ..",
".. ............. ................................ ........... ..",
"... ............ ................................ .......... ...",
"... ............ ................................ .......... ...",
".... ........... ................................ ......... ....",
".... ........... ................................ ......... ....",
"..... .......... ................................ ........ .....",
"...... .........                                  ....... ......",
"....... ................................................ .......",
"....... ................................................ .......",
"........ .............................................. ........",
"......... ............................................ .........",
".......... .......................................... ..........",
"...........  ......................................  ...........",
"............. .................................... .............",
".............. .................................. ..............",
"...............  ..............................  ...............",
".................  ..........................  .................",
"...................   ....................   ...................",
"......................    ............    ......................",
"..........................            .........................."
};
