/* XPM */
static char * road_xpm[] = {
"64 64 556 2",
"  	c #343734",
". 	c #343634",
"+ 	c #353835",
"@ 	c #343533",
"# 	c #343633",
"$ 	c #353734",
"% 	c #353834",
"& 	c #333537",
"* 	c #B47F1D",
"= 	c #B0821B",
"- 	c #AE811D",
"; 	c #B18124",
"> 	c #B4821D",
", 	c #B27F1D",
"' 	c #B3801E",
") 	c #B47F1E",
"! 	c #AF7A1F",
"~ 	c #B4801D",
"{ 	c #B3801B",
"] 	c #B5821A",
"^ 	c #B6831D",
"/ 	c #B17D1D",
"( 	c #B58120",
"_ 	c #B5811B",
": 	c #B6821B",
"< 	c #B4831E",
"[ 	c #AF7F22",
"} 	c #B58121",
"| 	c #B07B1F",
"1 	c #B37E21",
"2 	c #B8841E",
"3 	c #B6831F",
"4 	c #B4811B",
"5 	c #B4811C",
"6 	c #B5811F",
"7 	c #B37F21",
"8 	c #B37F1C",
"9 	c #B47F21",
"0 	c #B4801F",
"a 	c #B17D1F",
"b 	c #B58122",
"c 	c #B5821D",
"d 	c #B37F1F",
"e 	c #B6821D",
"f 	c #B7841D",
"g 	c #B4811E",
"h 	c #B18022",
"i 	c #AF8020",
"j 	c #B5831E",
"k 	c #B5801E",
"l 	c #B68223",
"m 	c #B58021",
"n 	c #B27D1F",
"o 	c #AF7A1D",
"p 	c #BA8524",
"q 	c #B47F20",
"r 	c #B6821F",
"s 	c #B78222",
"t 	c #B48023",
"u 	c #584833",
"v 	c #57462F",
"w 	c #58452D",
"x 	c #59472E",
"y 	c #58482F",
"z 	c #574630",
"A 	c #56472D",
"B 	c #54462C",
"C 	c #58492E",
"D 	c #56472E",
"E 	c #564730",
"F 	c #574731",
"G 	c #57462E",
"H 	c #59462E",
"I 	c #58482C",
"J 	c #56472B",
"K 	c #55472E",
"L 	c #56472F",
"M 	c #57472E",
"N 	c #56482B",
"O 	c #57482B",
"P 	c #56472C",
"Q 	c #56472A",
"R 	c #564729",
"S 	c #56482A",
"T 	c #57492B",
"U 	c #56482C",
"V 	c #56482E",
"W 	c #56482D",
"X 	c #57492D",
"Y 	c #57482F",
"Z 	c #584830",
"` 	c #57462A",
" .	c #58462B",
"..	c #574831",
"+.	c #57482C",
"@.	c #57492C",
"#.	c #54462A",
"$.	c #55472B",
"%.	c #55472D",
"&.	c #57482E",
"*.	c #57482D",
"=.	c #584A2D",
"-.	c #5A4A2F",
";.	c #313238",
">.	c #303238",
",.	c #2F3336",
"'.	c #303437",
").	c #323639",
"!.	c #33343A",
"~.	c #323339",
"{.	c #313538",
"].	c #313539",
"^.	c #32363A",
"/.	c #34353B",
"(.	c #33353A",
"_.	c #33353B",
":.	c #35373D",
"<.	c #35363D",
"[.	c #37393F",
"}.	c #37383E",
"|.	c #38393F",
"1.	c #393B41",
"2.	c #393A40",
"3.	c #383A40",
"4.	c #36383E",
"5.	c #37393E",
"6.	c #37383F",
"7.	c #34353C",
"8.	c #33343B",
"9.	c #35363C",
"0.	c #313339",
"a.	c #2F3137",
"b.	c #313237",
"c.	c #303237",
"d.	c #313338",
"e.	c #303137",
"f.	c #2E2F36",
"g.	c #2F3037",
"h.	c #2F3036",
"i.	c #2C2E33",
"j.	c #2D2F35",
"k.	c #2E2F35",
"l.	c #2E2F33",
"m.	c #2E3031",
"n.	c #2D2F31",
"o.	c #2D2F32",
"p.	c #2E2F34",
"q.	c #2E3036",
"r.	c #2F3136",
"s.	c #2D2E34",
"t.	c #2E3032",
"u.	c #2D2F34",
"v.	c #2D2E35",
"w.	c #2D2F33",
"x.	c #2C2E32",
"y.	c #2E3035",
"z.	c #2E3033",
"A.	c #2E3034",
"B.	c #2C2D34",
"C.	c #9A9CA0",
"D.	c #BBBDBF",
"E.	c #BDBEC2",
"F.	c #BABCC0",
"G.	c #BABCBF",
"H.	c #BCBDC1",
"I.	c #B7B9BC",
"J.	c #B8B9BD",
"K.	c #B9BABE",
"L.	c #BBBCC0",
"M.	c #A0A1A6",
"N.	c #2C2D33",
"O.	c #2C2D32",
"P.	c #909194",
"Q.	c #B7B9BB",
"R.	c #BABCBE",
"S.	c #B8BABB",
"T.	c #BABBBD",
"U.	c #BBBCBF",
"V.	c #BBBDC1",
"W.	c #BBBDC0",
"X.	c #B8BABE",
"Y.	c #A8A9AE",
"Z.	c #8B8C8F",
"`.	c #BDBFC1",
" +	c #B8BABD",
".+	c #B5B7BA",
"++	c #BABBBF",
"@+	c #B6B7BB",
"#+	c #2B2C32",
"$+	c #333437",
"%+	c #343539",
"&+	c #333538",
"*+	c #343538",
"=+	c #323437",
"-+	c #323438",
";+	c #333438",
">+	c #323337",
",+	c #2B2C31",
"'+	c #313336",
")+	c #323436",
"!+	c #323435",
"~+	c #343637",
"{+	c #313337",
"]+	c #2A2B31",
"^+	c #333539",
"/+	c #35363A",
"(+	c #2C2D31",
"_+	c #2B2C30",
":+	c #2A2C30",
"<+	c #2B2D33",
"[+	c #2B2D2E",
"}+	c #2C2E2F",
"|+	c #2C2D30",
"1+	c #2A2B2F",
"2+	c #2F3135",
"3+	c #32333A",
"4+	c #323338",
"5+	c #34363C",
"6+	c #383940",
"7+	c #303138",
"8+	c #313239",
"9+	c #2B2C33",
"0+	c #292B31",
"a+	c #2A2C32",
"b+	c #292A30",
"c+	c #282A30",
"d+	c #292A31",
"e+	c #282930",
"f+	c #26272D",
"g+	c #27272D",
"h+	c #27282D",
"i+	c #28282E",
"j+	c #28292E",
"k+	c #26262C",
"l+	c #27282E",
"m+	c #26272C",
"n+	c #2C2C31",
"o+	c #B98E1E",
"p+	c #BC8D1F",
"q+	c #BF8C1F",
"r+	c #BF8C21",
"s+	c #C18E22",
"t+	c #C08D21",
"u+	c #BD8A1F",
"v+	c #C08C21",
"w+	c #BD8A21",
"x+	c #BE8A1F",
"y+	c #BF8B1E",
"z+	c #C18C1B",
"A+	c #C28A1F",
"B+	c #C18A20",
"C+	c #C08B1F",
"D+	c #BD8A1E",
"E+	c #BB8B1D",
"F+	c #BB8E1F",
"G+	c #B98E1F",
"H+	c #BC8B1D",
"I+	c #BE8B1B",
"J+	c #BE8C19",
"K+	c #BF8D1B",
"L+	c #C08E1C",
"M+	c #BF8D1F",
"N+	c #BA8922",
"O+	c #BC8E22",
"P+	c #BD8D1B",
"Q+	c #C08D1B",
"R+	c #C38E1C",
"S+	c #C0901E",
"T+	c #BC8E1D",
"U+	c #BC8E1E",
"V+	c #BF8E1B",
"W+	c #BF8D1C",
"X+	c #BE8D1A",
"Y+	c #BF8D1A",
"Z+	c #C08D1C",
"`+	c #BF8E21",
" @	c #B88B1E",
".@	c #B88B1F",
"+@	c #BE8D20",
"@@	c #BE8C1B",
"#@	c #BF8C1B",
"$@	c #C08B1E",
"%@	c #BF8A1F",
"&@	c #BE8C1C",
"*@	c #BE8D19",
"=@	c #BC891B",
"-@	c #C08C20",
";@	c #C08A20",
">@	c #BF8B21",
",@	c #BF8921",
"'@	c #BF8B1D",
")@	c #C2901B",
"!@	c #C1901B",
"~@	c #B98C20",
"{@	c #BB871A",
"]@	c #BC871C",
"^@	c #BC861B",
"/@	c #BE881C",
"(@	c #BE881D",
"_@	c #B8811A",
":@	c #BD861E",
"<@	c #BF881D",
"[@	c #BD881D",
"}@	c #BC881E",
"|@	c #BD891E",
"1@	c #BE8B1F",
"2@	c #BD871E",
"3@	c #BE881E",
"4@	c #B8861D",
"5@	c #BE8B20",
"6@	c #BF891F",
"7@	c #C0891E",
"8@	c #C08A1D",
"9@	c #C18C1D",
"0@	c #BB8517",
"a@	c #BE891A",
"b@	c #BB8619",
"c@	c #BC881C",
"d@	c #BD881C",
"e@	c #BE8A1D",
"f@	c #BD891C",
"g@	c #BD871B",
"h@	c #BE8819",
"i@	c #BE881A",
"j@	c #BB8519",
"k@	c #BC861A",
"l@	c #BE881B",
"m@	c #BC891A",
"n@	c #B9881A",
"o@	c #BB881C",
"p@	c #BC881D",
"q@	c #BD871D",
"r@	c #BD891D",
"s@	c #BE891F",
"t@	c #BD871C",
"u@	c #BF8920",
"v@	c #BB861C",
"w@	c #BD881E",
"x@	c #BF891E",
"y@	c #BF891D",
"z@	c #403728",
"A@	c #43392A",
"B@	c #42382A",
"C@	c #413728",
"D@	c #40372B",
"E@	c #40362D",
"F@	c #41372A",
"G@	c #403729",
"H@	c #40362A",
"I@	c #41362E",
"J@	c #3F362B",
"K@	c #40382A",
"L@	c #3F382B",
"M@	c #41392B",
"N@	c #413729",
"O@	c #403629",
"P@	c #43392B",
"Q@	c #41382A",
"R@	c #423829",
"S@	c #423729",
"T@	c #433929",
"U@	c #403628",
"V@	c #3F3628",
"W@	c #453A2F",
"X@	c #302E33",
"Y@	c #312F33",
"Z@	c #312E33",
"`@	c #322F33",
" #	c #322F34",
".#	c #333034",
"+#	c #332F34",
"@#	c #312F32",
"##	c #322F32",
"$#	c #333033",
"%#	c #323033",
"&#	c #343235",
"*#	c #333239",
"=#	c #343339",
"-#	c #343338",
";#	c #353339",
">#	c #333237",
",#	c #343238",
"'#	c #333238",
")#	c #333137",
"!#	c #333236",
"~#	c #363539",
"{#	c #35363F",
"]#	c #35353E",
"^#	c #37353D",
"/#	c #36353D",
"(#	c #36363D",
"_#	c #35353D",
":#	c #36363B",
"<#	c #37363B",
"[#	c #35363B",
"}#	c #35373B",
"|#	c #34363A",
"1#	c #35353A",
"2#	c #38373C",
"3#	c #36383F",
"4#	c #363740",
"5#	c #363840",
"6#	c #36393F",
"7#	c #35393E",
"8#	c #35383E",
"9#	c #363A3F",
"0#	c #36393E",
"a#	c #36383D",
"b#	c #38383D",
"c#	c #37383D",
"d#	c #36393D",
"e#	c #35393D",
"f#	c #36383C",
"g#	c #35393C",
"h#	c #3B3A3F",
"i#	c #393A3F",
"j#	c #393A41",
"k#	c #383B40",
"l#	c #373B40",
"m#	c #3B3C42",
"n#	c #393B42",
"o#	c #383C41",
"p#	c #3A3B41",
"q#	c #3B3C43",
"r#	c #373A40",
"s#	c #373A3F",
"t#	c #383B41",
"u#	c #36373E",
"v#	c #48494E",
"w#	c #545658",
"x#	c #535456",
"y#	c #55575A",
"z#	c #545659",
"A#	c #515256",
"B#	c #545559",
"C#	c #535558",
"D#	c #535457",
"E#	c #555659",
"F#	c #4D4E53",
"G#	c #47484D",
"H#	c #565759",
"I#	c #535557",
"J#	c #56575A",
"K#	c #525357",
"L#	c #545558",
"M#	c #44454A",
"N#	c #555759",
"O#	c #535458",
"P#	c #525356",
"Q#	c #909195",
"R#	c #B0B1B3",
"S#	c #B2B4B5",
"T#	c #B3B4B8",
"U#	c #B2B3B7",
"V#	c #B1B2B6",
"W#	c #ADAEB2",
"X#	c #ACAEB1",
"Y#	c #ABADB1",
"Z#	c #AEAFB3",
"`#	c #98999E",
" $	c #8B8C91",
".$	c #B1B3B5",
"+$	c #B1B3B6",
"@$	c #B0B2B5",
"#$	c #AFB1B4",
"$$	c #AFB0B4",
"%$	c #B1B3B7",
"&$	c #AEB0B3",
"*$	c #B3B4B7",
"=$	c #9FA1A5",
"-$	c #828388",
";$	c #B3B5B6",
">$	c #B5B6BA",
",$	c #ABACB0",
"'$	c #B0B2B6",
")$	c #303135",
"!$	c #303236",
"~$	c #313236",
"{$	c #323439",
"]$	c #333439",
"^$	c #35353C",
"/$	c #333339",
"($	c #34343A",
"_$	c #35353B",
":$	c #34343B",
"<$	c #35373C",
"[$	c #383535",
"}$	c #383536",
"|$	c #363435",
"1$	c #383534",
"2$	c #373532",
"3$	c #373433",
"4$	c #363433",
"5$	c #373434",
"6$	c #373533",
"7$	c #373535",
"8$	c #373435",
"9$	c #363334",
"0$	c #363333",
"a$	c #383533",
"b$	c #383633",
"c$	c #363434",
"d$	c #363432",
"e$	c #3A3637",
"f$	c #BD871F",
"g$	c #BD8720",
"h$	c #BB851E",
"i$	c #BC8620",
"j$	c #BF8A22",
"k$	c #BE8A21",
"l$	c #BA8721",
"m$	c #BB881F",
"n$	c #BC861F",
"o$	c #BE8821",
"p$	c #BC861D",
"q$	c #BD8820",
"r$	c #BC871D",
"s$	c #BC861E",
"t$	c #BE881F",
"u$	c #C08A21",
"v$	c #C18B22",
"w$	c #C18B20",
"x$	c #BF8922",
"y$	c #BE8822",
"z$	c #BD8721",
"A$	c #BE8820",
"B$	c #BD8722",
"C$	c #BB8622",
"D$	c #BC871F",
"E$	c #BD861F",
"F$	c #BC8720",
"G$	c #BB851F",
"H$	c #BE891D",
"I$	c #BE8921",
"J$	c #343231",
"K$	c #323030",
"L$	c #31302F",
"M$	c #302F2F",
"N$	c #302F2E",
"O$	c #323130",
"P$	c #333131",
"Q$	c #313130",
"R$	c #313232",
"S$	c #313131",
"T$	c #323031",
"U$	c #313030",
"V$	c #333232",
"W$	c #312F30",
"X$	c #312F31",
"Y$	c #323032",
"Z$	c #333132",
"`$	c #313031",
" %	c #313032",
".%	c #333032",
"+%	c #323131",
"@%	c #353336",
"        .   + +   . .     .   . @ # .           .         . . #   $ +   . . . . . .     .   % +   . . . . . $ $   .     . . . & ",
"* = - ; > , ' ) ! ~ { ] ^ / ( { _ : < [ } | 1 2 3 4 _ 5 6 7 6 8 6 9 0 a b / ~ c d ( e f g h i j f e k l m n o p q 6 r r s t m t ",
"u v w x y z z A B C A D D E F A A A G H I J K D D D L M N O N P J Q R S T U V D W X Y Z A `  .M ..L +.@.@.N #.S $.%.Y &.*.X =.-.",
";.;.>.>.>.>.>.>.,.,.,.,.,.,.,.,.,.,.,.,.,.,.,.,.,.,.,.,.,.,.'.'.,.,.,.,.,.,.,.,.,.'.'.,.,.,.'.'.,.,.,.,.,.,.,.,.,.'.'.'.'.'.'.).",
"!.!.!.~.~.~.~.~.'.'.'.'.'.'.'.'.'.'.'.'.'.'.'.'.'.'.'.'.'.{.{.{.{.'.'.'.'.'.'.'.{.{.].'.'.'.{.{.{.'.'.'.'.'.'.'.'.'.'.'.'.'.'.^.",
"/./././././././.(.(.(.(.(.(.(.(.(.(.(.(.(.(.(.(.(.(.(.(.(._._._._.(.(.(.(.(.(.(._._._._.(._._._._.(.(.(.(.(.(.(.(.(.(.(.(.(.(.:.",
"<.<.<.<.<.:.:.:.<.<.<.<.<.<.<.<.<.<.<.<.<.<.<.<.<.<.<.<.<.<.<.<.<.<.<.<.<.<.<.<.<.<.<.<.<.<.<.<.<.<.<.<.<.<.<.<.<.<.<.<.<.<.<.[.",
"[.[.[.[.[.[.}.[.[.[.[.[.[.[.[.[.[.[.[.[.[.[.[.[.[.[.[.[.[.[.[.[.[.[.[.[.[.[.[.[.[.[.[.[.[.[.[.[.[.[.[.[.|.|.[.[.[.[.[.[.[.[.[.1.",
"2.2.3.[.[.[.[.[.2.2.3.[.[.3.2.2.[.3.2.2.2.2.3.3.[.[.[.|.|.3.[.[.3.2.2.2.2.|.4.4.[.[.[.2.2.2.2.2.2.2.2.[.[.[.2.|.[.[.[.3.2.2.[.1.",
"[.[.[.[.[.[.[.[.[.[.[.|.|.[.[.[.5.[.|.[.[.[.[.[.[.[.[.[.[.|.|.|.[.[.[.[.[.[.4.4.[.[.[.[.[.[.[.[.|.2.2.[.[.[.6.|.|.[.[.[.[.[.[.1.",
"4.4.4.4.4.[.[.[.4.4.4.4.4.4.4.4.4.4.[.4.4.4.4.4.[.[.[.[.4.4.4.4.4.4.4.4.4.4.4.4.4.4.4.4.4.4.4.4.4.4.[.[.4.4.[.4.4.[.[.4.4.4.[.1.",
"7.7.<.<.<.:.:.:.7.7.7.7.7.7.7.7.<.<.<.<.<.<.<.<.<.<.<.<.<.<.<.<.<.<.<.<.<.<.<.<.<.<.<.<.:.<.<.<.<.<.:.<.<.<.<.<.:.:.:.:.:.:.:.6.",
"7.7.7.7.7.<.<.<.7.7.7.7.7.7.7.7.7.7.7.7.7.7.7.7.7.7.7.7.7.7.7.7.7.7.7.7.7.7.7.7.7.7.7.7.7.7.7.7.7.7.7.7.7.7.7.7.7.<.<.<.<.<.7.}.",
"!.!.!.!.!.8./.8.!.!.!.!.!.!.!.!.!.!.!.!.!.!.!.!.!.!.!.!.!.!.!.!.!.!.!.!.!.~.~.~.~.!.!.!.!.!.~.~.~.!.!.!.!.!.!.!.!.!.!.!.!.!.~.9.",
"0.0.~.~.a.>.;.;.;.;.b.;.;.c.c.c.d.~.0.>.>.>.>.>.>.>.>.~.~.;.c.c.c.e.e.>.>.>.a.a.a.a.>.>.>.>.a.a.>.>.>.0.e.>.>.>.>.>.>.>.c.c.e.!.",
"f.f.g.h.i.j.k.k.k.l.m.m.m.n.o.o.p.f.f.f.f.f.f.f.g.q.a.r.s.o.t.o.u.v.u.w.w.w.x.w.j.a.q.q.f.q.g.g.f.f.f.y.y.y.f.f.l.z.A.A.t.w.s.e.",
"B.B.v.C.D.E.F.E.F.G.H.I.J.G.K.L.M.f.f.v.v.v.v.v.s.N.O.P.Q.R.S.T.U.V.H.W.W.L.X.F.Y.j.f.v.v.v.v.v.v.v.s.Z.D.`.L.L.L. +.+++J. +++@+",
"#+#+#+e.$+%+&+&+%+*+=+&+-+;+>+>+;.#+B.N.N.N.N.#+#+#+,+'+& )+!+~+& ;+;+%+%+%+{+%+b.]+N.N.N.N.N.N.N.N.O.A.& $+;+&+%+^+=+>+-+-+&+/+",
"B.B.N.#+]+,+,+,+,+,+,+(+(+_+:+:+#+#+N.N.N.N.N.<+N.N.N.#+O._+[+}+|+(+(+(+(+_+1+(+N.#+N.N.N.N.N.N.N.N.N.#+]+#+,+,+(+_+,+,+(+(+x.2+",
"q.q.f.v.v.v.v.v.v.v.v.f.v.v.v.v.v.v.v.v.v.v.v.v.v.v.v.v.v.s.w.w.w.w.w.w.w.w.w.w.j.v.v.v.v.v.v.v.v.v.v.v.v.v.v.v.v.v.v.v.v.v.v.>.",
"a.a.a.a.a.a.a.a.a.a.a.a.a.a.a.a.a.a.a.a.a.a.a.a.a.a.a.a.a.r.2+2+2+2+2+2+2+2+2+2+r.a.a.a.a.a.a.a.a.a.a.a.a.a.a.a.a.a.a.a.a.a.a.3+",
"0.0.0.0.0.0.0.0.0.0.0.0.0.~.~.~.0.0.0.0.0.0.0.0.0.0.0.0.0.d.d.d.d.d.4+4+4+4+d.d.~.~.~.~.0.0.0.0.0.0.0.0.0.0.0.0.0.0.0.0.0.0.0.5+",
"/./.7.7.7.7.7.7.7.7.7.7.7.7.7.7.7.7.7.7.7.7.7.7.7.7.7.7.7.7.7.7.7.7.7.7.7.7.7.7.7.<.<.7.7.7.7.7.7.7.7.7././././.7.7.7.7./././.4.",
"<.<.<.<.<.<.<.<.<.<.<.<.<.<.<.<.<.<.<.<.<.<.<.<.<.<.<.<.<.<.<.<.<.<.<.<.<.<.<.<.<.<.<.<.<.<.<.<.<.<.<.<.<.<.<.<.<.<.<.<.<.<.<.6+",
"!.!.!.!.!.!.!.!.8.8.8.8.8./././._.8.8.8.7.7.7.7.!.!.!.!.!.!.!.!.!.!.!.8.8.8.!.!.!.!.!.!.3+!.!.!.8.8.8./././.8.8.8.8.8.8.!.!./.}.",
">.>.>.>.>.>.7+7+a.a.a.a.a.a.a.a.>.>.>.>.>.>.>.>.>.>.>.a.a.a.a.a.a.a.a.7+7+>.;.;.>.7+e.g.g.g.e.7+e.a.a.a.a.a.>.>.>.>.>.a.g.g.>.8.",
"f.f.f.g.g.f.f.f.f.f.f.f.f.f.f.f.f.f.f.f.f.f.f.f.f.f.f.v.v.v.v.v.v.v.v.f.f.f.j.j.k.f.f.v.v.v.f.f.f.f.f.f.f.f.f.f.f.f.f.v.s.s.f.8+",
"N.N.N.N.N.N.N.N.N.N.B.B.B.B.B.B.N.N.N.N.N.N.N.N.N.N.N.N.N.N.N.N.N.N.N.N.N.9+#+#+#+#+#+#+#+<+N.N.B.B.B.N.N.N.N.N.N.N.N.#+#+#+B.g.",
"]+]+]+]+]+0+0+0+#+#+a+]+]+]+]+]+b+c+0+]+]+]+]+]+]+]+]+]+]+]+]+]+]+]+]+0+0+0+0+0+0+0+0+c+c+c+c+c+0+]+]+0+c+c+c+c+c+c+c+0+0+0+#+k.",
"c+c+c+c+c+0+d+c+0+0+c+e+e+c+c+c+c+e+c+c+c+c+c+c+c+c+c+c+c+c+c+c+c+c+c+0+0+0+c+c+c+c+c+c+e+e+e+e+c+c+c+c+c+c+c+c+c+e+e+c+c+c+c+N.",
"f+g+h+i+j+j+h+k+g+g+f+h+h+f+h+h+g+h+h+j+j+h+g+g+f+g+g+g+i+l+g+g+g+g+g+g+g+g+g+g+g+f+g+h+h+h+h+g+h+h+h+g+g+m+k+j+g+g+g+l+j+j+j+n+",
"o+p+q+r+s+t+u+v+w+x+y+z+A+B+C+q+D+E+F+G+H+I+J+K+L+M+N+O+P+Q+R+S+T+U+V+W+K+V+X+Y+Y+Y+Z+`+ @.@+@@@Y+#@$@%@&@J+*@=@-@;@>@,@'@)@!@~@",
"{@]@^@/@(@_@:@<@/@/@[@}@|@1@|@2@3@|@4@5@6@7@8@9@0@a@b@c@d@e@f@g@C+|@a@h@i@j@/@k@l@f@m@n@o@p@q@g@g@d@r@s@3@/@t@u@v@w@x@]@c@y@x@x+",
"z@A@B@C@D@E@E@F@G@H@E@I@D@D@J@F@J@K@L@M@F@N@O@N@H@P@B@O@G@Q@N@O@N@A@A@R@S@T@N@R@U@U@R@N@V@V@U@U@R@R@O@N@R@N@N@U@N@N@N@R@G@O@B@W@",
"X@X@Y@Z@`@ # #.#.#.#.#.#.#.#.#.#+#+#+#.#.#.#.#.#.#.#.#.#.#.#.#.#.#.#.# #`@ #.#.# #Z@Z@+#.#.#.#.# #Z@Z@@#@###$#$#%#@#@#@#######&#",
"*#*#=#-#-#;#-#>#,#,#,#'#'#>#>#>#)#)#)#>#>#-#-#-#-#-#-#-#-#,#>#>#>#>#>#>#>#'#-#-#-#-#-#-#-#-#-#-#-#-#-#-#-#-#-#-#-#-#-#>#!#!#!#~#",
"{#{#]#^#/#(#<.7.7.7.7.7.7.7.7.7.7.7.7.7.7.7.<.<._#_#_#<.<.9.9.9.7.7.7.7.7.7.<.<.<.<.<._#_#_#_#_#_#_#_#:#<#:#[#}#}#[#[#/+|#|#1#2#",
"3#4#5#}.4.6#7#7#7#7#7#7#7#8#8#8#6#6#6#7#7#7#7#8#8#8#8#8#8#7#9#9#6#7#7#8#8#7#9#9#6#7#7#7#7#7#7#7#7#7#0#a#b#c#d#d#e#f#f#f#g#d#c#h#",
"i#3.j#k#k#l#l#l#l#l#l#l#l#l#l#l#l#l#l#l#l#l#l#l#9#9#9#9#9#l#l#l#l#l#l#9#9#l#l#l#l#l#l#l#l#l#l#l#l#l#l#3.2.2.2.2.3.|.3.1.2.2.2.m#",
"i#2.n#o#o#l#l#l#l#l#l#l#l#l#l#o#l#l#l#o#o#l#l#l#l#l#l#l#l#l#o#o#l#l#l#o#o#o#o#o#l#l#l#o#o#o#o#o#o#o#o#2.2.2.2.2.2.2.2.p#p#2.2.q#",
"|.[.6+r#s#r#r#r#r#r#s#s#s#s#r#[.k#k#3.r#r#r#r#r#r#r#r#r#r#r#r#s#r#r#r#r#r#s#6#6#s#k#r#r#r#r#k#6#3.t#t#2.2.2.2.2.2.3.3.[.[.3.3.m#",
"4.4.[.[.[.4.4.4.[.[.4.4.4.4.4.4.[.[.[.4.4.4.4.4.4.4.4.4.4.4.4.4.4.4.4.4.4.4.4.4.4.[.6.4.4.4.4.4.[.[.[.[.4.[.|.3.[.4.4.4.4.4.4.j#",
"u#u#u#4.4.u#u#u#<.<.<.<.<.<.<.<.:.u#u#u#u#u#u#u#u#u#:.<.<.<.u#u#u#u#u#u#u#:.<.<.<.:.<.:.u#:.<.<.<.:.:.u#u#u#<.<.<.u#u#u#u#u#u#3.",
"7.7.7.7.7.7.7.7./././.7.7.7.7.7.7.7.7.7.7.7.7.7.7.7.7.7.7.7.7.7.7.7.7.7.7.7.7.7.7.7.7.7.7.7.!.!.8././.7.7.7./././.7.7.7.7.7.7.}.",
"~.~.~.~.~.~.!.!.~.~.~.~.~.~.~.~.!.!.!.!.!.!.!.!.!.!.!.!.!.!.!.!.!.!.!.!.!.!.!.!.!.!.!.!.!.~.0.0.0.0.0.~.!.!.0.0.~.!.!.!.!.!.!.9.",
">.>.>.;.;.>.c.a.>.;.>.a.a.>.>.>.>.>.>.e.e.e.e.e.e.e.e.>.>.>.c.c.c.e.e.e.e.c.c.c.>.>.>.e.e.e.a.a.a.a.a.>.>.>.a.a.e.>.>.>.>.>.>._.",
"q.q.g.>.>.y.2+A.A.2+A.2+2+2+A.A.q.g.q.f.f.f.f.f.f.f.f.a.a.r.2+2+A.A.A.A.A.A.2+2+r.a.a.f.f.f.f.f.f.f.f.a.a.a.A.A.A.A.A.A.A.A.A.{+",
"v.v.f.v#w#x#y#z#A#B#C#z#D#E#z#B#F#f.f.v.v.v.v.v.v.v.f.G#H#I#J#K#z#E#B#A#L#C#B#z#F#a.j.v.v.v.v.v.v.v.v.M#B#N#E#z#z#z#C#O#O#D#P#K#",
"v.v.j.Q#R#S#T#U#U#V#V#W#W#X#Y#Z#`#f.f.v.v.v.v.v.v.v.f. $.$R#+$@$#$T#$$#$%$&$*$#$=$v.s.v.v.v.v.v.v.v.v.-$*$;$.$U#&$>$,$'$+$#$W#@$",
"g.g.y.l.A.)$!$!$2+2+2+2+2+2+!$!$e.g.g.g.g.g.g.g.g.g.g.2+2+2+2+2+2+2+2+2+2+2+2+A.y.a.a.g.g.g.g.g.g.g.g.r.2+2+2+2+2+2+2+2+2+2+A.{+",
";.;.c.2+2+!$~$~$>+>+~$2+2+!$~$~$;.;.;.;.;.;.;.;.;.;.;.~$~$~$~$~$~$~$~$~$~${+>+>+d.0.0.;.;.;.;.;.;.;.;.b.~$~$~$~$~$~$~$~$~$~$~$^+",
"!.!.{$~.~.]$!.!.]$]$]$!.!.]$]$]$!.!.!.!.!.!.!.!.!.!.!.]$]$]$]$]$]$]$]$]$]$]$]$]$!.!.!.!.!.!.8.8.!.!.!.]$]$]$]$]$]$]$]$]$]$]$]$9.",
"/./.7.7.7.7.<.<.7.7.7.7.7.7.7.7.7.7.7.7.7.7.7.7.7.7.7.7.7.7.7.7.7.7.7.7.7.7.7.7.7.7.7.7.7.7.7.7.7.7.7.7.7.7.7.7.7.7.7.7.7.7.7.}.",
"<.<.<.:.:.<.<.<.<.<.<.<.<.<.<.<.<.<.<.<.<.<.<.<.<.<.<.:.:.<.<.<.<.<.<.:.:.<.<.<.<.:.:.<.<.<.<.<.<.:.:.:.:.:.<.<.<.<.<.<.<.<.<.[.",
"4.4.4.4.4.4.4.4.4.4.4.4.4.4.4.4.4.4.4.4.4.4.4.4.4.4.4.[.[.4.4.4.4.4.4.[.[.4.4.4.4.[.[.4.4.4.4.4.4.[.[.[.[.[.4.4.4.4.4.4.4.4.4.j#",
"[.[.[.[.[.[.[.[.[.[.[.[.[.[.[.[.[.[.[.[.[.[.[.[.[.[.4.[.[.[.[.[.4.4.4.[.[.[.4.4.[.[.[.[.[.[.[.[.[.[.[.[.[.[.[.[.6.[.[.[.[.[.[.p#",
"[.[.[.[.[.[.[.[.[.[.[.[.[.[.[.[.4.4.[.[.[.[.[.[.[.[.[.4.4.[.[.[.4.4.4.[.[.[.4.4.4.[.[.[.[.[.4.4.[.[.[.[.[.[.[.[.4.4.4.[.[.[.[.1.",
"4.4.4.4.4.4.4.4.4.4.4.4.4.4.4.4.<.<.:.u#u#4.4.4.4.4.4.<.<.:.4.4.4.4.4.4.4.4.4.4.4.4.4.:.:.:.<.<.u#4.4.4.4.4.4.4.u#<.<.u#4.4.4.2.",
"<.<.<.<.<.<.<.<.<.<.<.<.<.<.<.<.<.<.<.<.<.<.<.<.<.<.<.<.<.<.<.<.<.<.<.<.<.<.<.<.<.<.<.u#u#u#<.<.<.<.<.<.<.<.<.<.<.<.<.<.<.<.<.[.",
"<.<.<.7.7.7.7.7.7.7.7.7.7.7.7.7.7.7.7.7.7.7.7.7.7.7.7.7.7.7.7.7.7.7.7.7.7.7.7.7.7.7.7.7.7.7.7.7.7.7.7.7.7.7.<.<.<.7.7.7.7.7.7.6.",
"9.9.^$/.7.!.!././././././././.7./././././.!.]$]$/././././././.7./././././././././././././././.7.7./$!.8.!.($_$7.:$!.!.!.:$:$!.<$",
"[$}$|$1$2$3$4$5$5$[$5$5$5$5$6$2$6$7$[$[$[$8$9$0$8$8$5$5$5$5$1$a$3$5$5$[$8$7$8$5$5$5$5$5$5$[$5$b$3$c$4$6$d$7$[$2$6$5$5$5$5$5$5$e$",
"f$,@g$h$i$g$j$k$l$m$f$n$,@,@o$o$g$p$q$2@r$s$f$g$t$g$u$v$w$C+x$y$y$z$i$n$o$f$n$x$i$A$g$f$A$f$B$z$C$f$D$E$g$g$F$z$G$t$s@H$%@A$f$I$",
"J$K$L$M$N$O$P$Q$R$S$T$U$V$P$P$P$U$W$W$U$W$W$W$U$W$W$W$X$Y@ #%#Y$Y$Y$Y$Z$Z$`$X$X$X$@#X$X$X$ %X$X$Y$Z$.%$#$#%#%#%###@#X$+%+%%#@#@%"};
